<?xml version="1.0" encoding="utf-8"?>
<!-- Generator: Adobe Illustrator 27.5.0, SVG Export Plug-In . SVG Version: 6.00 Build 0)  -->
<svg version="1.1" xmlns="http://www.w3.org/2000/svg" xmlns:xlink="http://www.w3.org/1999/xlink" x="0px" y="0px"
	 viewBox="0 0 500 500" style="enable-background:new 0 0 500 500;" xml:space="preserve">
<g id="OBJECTS">
	<g>
		<ellipse style="opacity:0.2;" cx="418.259" cy="434.948" rx="52.87" ry="5.328"/>
		<ellipse style="opacity:0.2;" cx="101.672" cy="419.853" rx="52.87" ry="5.328"/>
		<ellipse style="opacity:0.2;" cx="257.686" cy="400.824" rx="194.589" ry="10.657"/>
		<g>
			<linearGradient id="SVGID_1_" gradientUnits="userSpaceOnUse" x1="53.4793" y1="169.0527" x2="149.9716" y2="169.0527">
				<stop  offset="0" style="stop-color:#FFFFFF"/>
				<stop  offset="1" style="stop-color:#F4F4F4"/>
			</linearGradient>
			<path style="fill:url(#SVGID_1_);" d="M101.726,217.299c-26.603,0-48.246-21.643-48.246-48.246s21.643-48.246,48.246-48.246
				c26.603,0,48.246,21.643,48.246,48.246S128.328,217.299,101.726,217.299z M101.726,121.757
				c-26.079,0-47.296,21.217-47.296,47.296s21.217,47.296,47.296,47.296s47.296-21.217,47.296-47.296
				S127.805,121.757,101.726,121.757z"/>
		</g>
		<g>
			
				<linearGradient id="SVGID_00000056391643913203985030000010584238715625918853_" gradientUnits="userSpaceOnUse" x1="58.2567" y1="169.0527" x2="145.1942" y2="169.0527">
				<stop  offset="0" style="stop-color:#FFFFFF"/>
				<stop  offset="1" style="stop-color:#F4F4F4"/>
			</linearGradient>
			<path style="fill:url(#SVGID_00000056391643913203985030000010584238715625918853_);" d="M101.726,212.522
				c-23.969,0-43.469-19.5-43.469-43.469s19.5-43.469,43.469-43.469c23.968,0,43.469,19.5,43.469,43.469
				S125.694,212.522,101.726,212.522z M101.726,126.534c-23.445,0-42.519,19.074-42.519,42.519s19.074,42.519,42.519,42.519
				c23.445,0,42.519-19.074,42.519-42.519S125.17,126.534,101.726,126.534z"/>
		</g>
		<path style="fill:none;stroke:#FFFFFF;stroke-miterlimit:10;" d="M82.62,300.24c-1.18,0.03-2.37,0.16-3.52,0.4
			c-1.53,0.32-3.01,0.81-4.42,1.49c-2.33,1.12-4.41,2.73-6.13,4.66c-3.36,3.78-5.36,8.79-5.25,13.86c0.04,2.19,0.44,4.36,0.41,6.55
			c-0.03,2.19-0.56,4.49-2.08,6.07c-1.88,1.93-4.83,2.36-7.52,2.22c-2.69-0.15-5.39-0.75-8.06-0.42c-4.79,0.6-9,4.48-9.98,9.21
			c-0.82,3.96,0.41,8.38-1.49,11.95c-1.74,3.29-5.53,4.8-8.95,6.25c-3.41,1.45-7.1,3.51-8.06,7.1c-1.13,4.23,2.35,8.56,6.48,10.02
			c4.12,1.45,8.64,0.82,12.98,0.26c14.31-1.85,28.75-2.65,43.17-2.4c0.92,0.01,1.84,0.03,2.76,0.06c2.2,0.06,4.39,0.14,6.59,0.25"/>
		<path style="fill:none;stroke:#FFFFFF;stroke-miterlimit:10;" d="M96.26,304.79c-1.76-1.46-3.77-2.58-5.91-3.34"/>
		<path style="fill:none;stroke:#FFFFFF;stroke-miterlimit:10;" d="M405.523,234.059c20.638,2.129,41.513,1.945,62.11-0.548
			c5.527-0.669,11.912-2.127,14.239-7.184c1.92-4.174,0.054-9.319-3.269-12.492s-7.802-4.789-12.178-6.188
			s-8.897-2.719-12.574-5.474c-6.233-4.671-8.98-12.645-10.444-20.295c-1.463-7.65-2.031-15.618-5.335-22.672
			c-3.303-7.054-10.334-13.15-18.081-12.343c-6.066,0.632-11.035,5.229-16.989,6.554c-8.217,1.83-16.318-2.794-23.691-6.858
			s-16.277-7.785-23.923-4.263c-7.123,3.281-10.275,11.593-12.005,19.242s-2.979,15.961-8.383,21.645
			c-3.789,3.985-9.09,6.07-13.978,8.589s-9.812,5.955-11.571,11.165"/>
		
			<linearGradient id="SVGID_00000039123182932549524950000006300702025159671997_" gradientUnits="userSpaceOnUse" x1="257.9667" y1="351.8613" x2="396.8852" y2="351.8613">
			<stop  offset="0" style="stop-color:#B3B3DD"/>
			<stop  offset="1" style="stop-color:#D3D1E7"/>
		</linearGradient>
		<path style="fill:url(#SVGID_00000039123182932549524950000006300702025159671997_);" d="M396.885,299.887l-10.108,103.949
			h-128.81c0,0,0.01,0,0.019-0.009C259.705,403.095,358.629,360.886,396.885,299.887z"/>
		
			<linearGradient id="SVGID_00000136383019123328535240000004097205184596802216_" gradientUnits="userSpaceOnUse" x1="80.4" y1="298.39" x2="407.28" y2="298.39">
			<stop  offset="0" style="stop-color:#FFFFFF"/>
			<stop  offset="1" style="stop-color:#F4F4F4"/>
		</linearGradient>
		<path style="fill:url(#SVGID_00000136383019123328535240000004097205184596802216_);" d="M112.24,335.86h-0.04l0.05,0.07
			C112.25,335.91,112.25,335.88,112.24,335.86z M112.24,335.86h-0.04l0.05,0.07C112.25,335.91,112.25,335.88,112.24,335.86z
			 M112.24,335.86h-0.04l0.05,0.07C112.25,335.91,112.25,335.88,112.24,335.86z M112.24,335.86h-0.04l0.05,0.07
			C112.25,335.91,112.25,335.88,112.24,335.86z M108.35,308.57l-1.59-2.5l-0.09-0.14c-0.45,0.1-2.43,0.51-5.13,0.91l4.5,6.88
			c0.18-0.05,0.32-0.09,0.43-0.12c0.04-0.01,0.08-0.02,0.11-0.03c0.04-0.02,0.08-0.03,0.11-0.04c0.02-0.01,0.04-0.01,0.05-0.01
			c0.01-0.01,0.02-0.01,0.02-0.01s0.18,0.01,0.46-0.02c0.11-0.01,0.23-0.03,0.37-0.06c0.06-0.01,0.12-0.03,0.19-0.04
			c0.55-0.14,1.26-0.44,1.89-1.07c0.09-0.08,0.17-0.17,0.24-0.27c0.05-0.05,0.09-0.1,0.13-0.15c0.08-0.1,0.16-0.21,0.23-0.32
			L108.35,308.57z M112.24,335.86h-0.04l0.05,0.07C112.25,335.91,112.25,335.88,112.24,335.86z M112.24,335.86h-0.04l0.05,0.07
			C112.25,335.91,112.25,335.88,112.24,335.86z M108.35,308.57l-1.59-2.5l-0.09-0.14c-0.45,0.1-2.43,0.51-5.13,0.91l4.5,6.88
			c0.18-0.05,0.32-0.09,0.43-0.12c0.04-0.01,0.08-0.02,0.11-0.03c0.04-0.02,0.08-0.03,0.11-0.04c0.02-0.01,0.04-0.01,0.05-0.01
			c0.01-0.01,0.02-0.01,0.02-0.01s0.18,0.01,0.46-0.02c0.11-0.01,0.23-0.03,0.37-0.06c0.06-0.01,0.12-0.03,0.19-0.04
			c0.55-0.14,1.26-0.44,1.89-1.07c0.09-0.08,0.17-0.17,0.24-0.27c0.05-0.05,0.09-0.1,0.13-0.15c0.08-0.1,0.16-0.21,0.23-0.32
			L108.35,308.57z M112.24,335.86h-0.04l0.05,0.07C112.25,335.91,112.25,335.88,112.24,335.86z M112.24,335.86h-0.04l0.05,0.07
			C112.25,335.91,112.25,335.88,112.24,335.86z M106.76,306.07v7.44c0,0,0.18,0.01,0.46-0.02c0.11-0.01,0.23-0.03,0.37-0.06
			c0.06-0.01,0.12-0.03,0.19-0.04c0.55-0.14,1.26-0.44,1.89-1.07c0.09-0.08,0.17-0.17,0.24-0.27c0.05-0.05,0.09-0.1,0.13-0.15
			c0.08-0.1,0.16-0.21,0.23-0.32l-1.92-3.01L106.76,306.07z M100.9,192.94l-1.8,18.55l-0.09,0.94l-0.38,3.82l-0.09,0.94l-0.75,7.76
			l-1.01,10.4l-2.66,27.31v0.01l-0.38,3.98l-0.67,6.8v0.01l-0.93,9.61v0.01l12.05,18.94l0.03,0.04l2.45,3.87
			c-0.45,0.1-2.43,0.51-5.13,0.91c-2.22,0.34-4.92,0.67-7.66,0.82c-0.23,0.01-0.45,0.02-0.68,0.03c-1.17,0.05-2.33,0.06-3.46,0.03
			l-0.28,2.93l-0.66,6.81l-0.53,5.42l-5.31,54.64l-1.83,18.82l-0.39,4l-0.34,3.5h177.57c0,0,0.01,0,0.02-0.01
			c0.01-0.01,0.03-0.02,0.04-0.02c0.01,0,0.01,0,0.02,0c0.05-0.03,0.12-0.06,0.22-0.1c0.1-0.04,0.22-0.09,0.36-0.16
			c0.07-0.03,0.14-0.06,0.23-0.1c0.16-0.07,0.35-0.15,0.55-0.24c0.31-0.14,0.67-0.3,1.08-0.48c0.27-0.12,0.56-0.25,0.87-0.39
			c0.03-0.01,0.07-0.03,0.11-0.05c0.43-0.19,0.91-0.41,1.41-0.64c0.74-0.33,1.55-0.71,2.43-1.12c0.44-0.21,0.9-0.42,1.38-0.64
			c0.47-0.23,0.97-0.46,1.48-0.7c0.63-0.31,1.29-0.62,1.98-0.95c0.36-0.17,0.73-0.35,1.11-0.54c0.34-0.16,0.68-0.33,1.03-0.5
			c0.59-0.29,1.19-0.58,1.81-0.88c0.62-0.31,1.25-0.62,1.9-0.94c3.03-1.51,6.36-3.21,9.94-5.1c1.38-0.73,2.79-1.48,4.24-2.26
			c0.79-0.43,1.58-0.86,2.39-1.3c0.42-0.23,0.84-0.46,1.27-0.7c0.42-0.22,0.83-0.45,1.25-0.69c3.56-1.96,7.27-4.08,11.09-6.33
			c0.68-0.4,1.36-0.8,2.04-1.21c1.55-0.92,3.11-1.86,4.69-2.83c0.97-0.59,1.95-1.19,2.93-1.8c0.99-0.62,1.98-1.24,2.97-1.87
			c0.66-0.41,1.31-0.83,1.97-1.25c1.89-1.21,3.8-2.46,5.71-3.73c0.96-0.63,1.92-1.27,2.88-1.92c3.36-2.27,6.73-4.63,10.09-7.07
			c0.48-0.35,0.96-0.7,1.44-1.05c1.92-1.4,3.83-2.83,5.74-4.29c0.71-0.55,1.43-1.1,2.14-1.66c0.91-0.7,1.82-1.42,2.72-2.15
			c0.37-0.29,0.74-0.59,1.11-0.88c0.98-0.79,1.96-1.58,2.93-2.38c0.79-0.66,1.58-1.32,2.37-1.98c0.92-0.78,1.84-1.56,2.75-2.35
			c0.11-0.1,0.23-0.2,0.34-0.3c0.8-0.69,1.59-1.39,2.38-2.09c0.22-0.2,0.45-0.4,0.67-0.6c1.01-0.91,2.01-1.82,3.01-2.74
			c0.55-0.51,1.1-1.02,1.64-1.54c0.44-0.41,0.88-0.82,1.31-1.24c0.87-0.83,1.73-1.67,2.58-2.51c0.34-0.34,0.69-0.68,1.03-1.03
			c0.35-0.35,0.69-0.69,1.03-1.04c0.85-0.86,1.69-1.72,2.52-2.59c1.5-1.59,2.97-3.19,4.41-4.81c0.85-0.95,1.68-1.91,2.5-2.88
			c0.34-0.39,0.68-0.79,1.01-1.19c0.06-0.07,0.12-0.15,0.18-0.22c0.55-0.65,1.09-1.31,1.62-1.97c0.84-1.04,1.66-2.08,2.47-3.14
			c2.7-3.52,5.22-7.12,7.52-10.78c0-0.01,0-0.01,0-0.01c0.01,0,0.01,0,0.01-0.01l0.33-3.42h-0.01c-2.58,0.25-7.83,0.6-15.96,0.41
			c-4.17-0.09-9.13-1.53-13.84-3.38h3c3.95,0.51,7.55,0.64,10.8,0.5c0.6-0.03,1.19-0.06,1.76-0.11c0.49-0.03,0.97-0.08,1.44-0.13
			c0.28-0.02,0.56-0.05,0.83-0.09c0.06,0,0.11-0.01,0.16-0.02c0.38-0.04,0.75-0.09,1.12-0.15c0.02,0,0.05,0,0.07-0.01
			c0.41-0.06,0.82-0.13,1.22-0.2c0.19-0.03,0.39-0.06,0.57-0.1c0.19-0.03,0.38-0.06,0.56-0.1c0.1-0.02,0.2-0.04,0.3-0.06
			c0.27-0.05,0.53-0.11,0.79-0.16c0.03-0.01,0.07-0.02,0.11-0.03c0.42-0.09,0.83-0.19,1.23-0.29c0.49-0.12,0.96-0.25,1.42-0.39
			c0.02,0,0.05-0.01,0.07-0.02c0.23-0.06,0.45-0.13,0.67-0.2c0.07-0.02,0.13-0.04,0.19-0.06c0.18-0.05,0.35-0.11,0.52-0.16
			l0.01-0.01c0.56-0.17,1.1-0.36,1.6-0.55c0.48-0.19,0.94-0.37,1.38-0.56c0.14-0.06,0.27-0.11,0.4-0.17
			c0.06-0.02,0.12-0.05,0.18-0.07v-0.01l0.56-5.78l0.28-2.93l1.03-10.57l0.16-1.6c0,0,0,0,0-0.01l1.69-17.42l1.41-14.49l4.34-44.61
			H100.9z M93.45,316.72c0.45-0.08,0.9-0.17,1.34-0.25c0.29-0.06,0.58-0.12,0.87-0.18c0.36-0.07,0.72-0.14,1.07-0.22
			c0.33-0.07,0.66-0.14,0.98-0.21c0.45-0.1,0.89-0.2,1.31-0.3c3.25-0.76,5.83-1.49,7.02-1.84c0.18-0.05,0.32-0.09,0.43-0.12
			c0.04-0.01,0.08-0.02,0.11-0.03c0.04-0.02,0.08-0.03,0.11-0.04c0.02-0.01,0.04-0.01,0.05-0.01c0.01-0.01,0.02-0.01,0.02-0.01
			s0.18,0.01,0.46-0.02c0.11-0.01,0.23-0.03,0.37-0.06c0.06-0.01,0.12-0.03,0.19-0.04c0.55-0.14,1.26-0.44,1.89-1.07
			c0.09-0.08,0.17-0.17,0.24-0.27c0.05-0.05,0.09-0.1,0.13-0.15c0.08-0.1,0.16-0.21,0.23-0.32l1.39,2.18l14.05,22.1l0.46,0.73
			c-0.96,1.28-2,2.36-3.07,3.24c-2.05,1.73-4.2,2.79-6.08,3.44c-1.51,0.53-2.83,0.79-3.8,0.92c-0.98,0.15-1.6,0.15-1.63,0.15
			l-5.57-8.48l-0.76-1.16l-4.71-7.17l-4.56-6.93L93.45,316.72z M112.24,335.86h-0.04l0.05,0.07
			C112.25,335.91,112.25,335.88,112.24,335.86z M108.35,308.57l-1.59-2.5v7.44c0,0,0.18,0.01,0.46-0.02
			c0.11-0.01,0.23-0.03,0.37-0.06c0.06-0.01,0.12-0.03,0.19-0.04c0.55-0.14,1.26-0.44,1.89-1.07c0.09-0.08,0.17-0.17,0.24-0.27
			c0.05-0.05,0.09-0.1,0.13-0.15c0.08-0.1,0.16-0.21,0.23-0.32L108.35,308.57z M112.24,335.86h-0.04l0.05,0.07
			C112.25,335.91,112.25,335.88,112.24,335.86z M112.24,335.86h-0.04l0.05,0.07C112.25,335.91,112.25,335.88,112.24,335.86z
			 M108.35,308.57l-1.59-2.5l-0.09-0.14c-0.45,0.1-2.43,0.51-5.13,0.91l4.5,6.88c0.18-0.05,0.32-0.09,0.43-0.12
			c0.04-0.01,0.08-0.02,0.11-0.03c0.04-0.02,0.08-0.03,0.11-0.04c0.02-0.01,0.04-0.01,0.05-0.01c0.01-0.01,0.02-0.01,0.02-0.01
			s0.18,0.01,0.46-0.02c0.11-0.01,0.23-0.03,0.37-0.06c0.06-0.01,0.12-0.03,0.19-0.04c0.55-0.14,1.26-0.44,1.89-1.07
			c0.09-0.08,0.17-0.17,0.24-0.27c0.05-0.05,0.09-0.1,0.13-0.15c0.08-0.1,0.16-0.21,0.23-0.32L108.35,308.57z M112.24,335.86h-0.04
			l0.05,0.07C112.25,335.91,112.25,335.88,112.24,335.86z M112.24,335.86h-0.04l0.05,0.07
			C112.25,335.91,112.25,335.88,112.24,335.86z M112.24,335.86h-0.04l0.05,0.07C112.25,335.91,112.25,335.88,112.24,335.86z
			 M112.24,335.86h-0.04l0.05,0.07C112.25,335.91,112.25,335.88,112.24,335.86z"/>
		
			<linearGradient id="SVGID_00000133517012640021717960000012885777276596948400_" gradientUnits="userSpaceOnUse" x1="387.32" y1="295.585" x2="413.45" y2="295.585">
			<stop  offset="0" style="stop-color:#D3D3D3"/>
			<stop  offset="1" style="stop-color:#FFFFFF"/>
		</linearGradient>
		<path style="fill:url(#SVGID_00000133517012640021717960000012885777276596948400_);" d="M413.45,387.37l-14.71,6.11h-0.01
			l-11.4,4.75h-0.01l0.52-5.32l6.67-68.67l0.79-8.09l0.31-3.2l1.27-13.04c0-0.01,0-0.01,0-0.01l0.33-3.43h0.01
			c0.59-0.06,1.03-0.11,1.34-0.15c0.1-0.26,0.22-0.53,0.34-0.8c0.19-0.44,0.41-0.89,0.63-1.34c0.18-0.37,0.37-0.73,0.56-1.09
			c0.01-0.02,0.02-0.03,0.03-0.05c0.15-0.27,0.3-0.55,0.45-0.82c1.5-2.68,3.12-5.03,3.4-5.43h-0.01c-0.02,0.01-0.04,0.03-0.07,0.05
			c-0.09,0.07-0.24,0.18-0.43,0.33c-0.22,0.16-0.51,0.37-0.86,0.6c-0.12,0.08-0.24,0.16-0.37,0.25c-0.4,0.25-0.86,0.53-1.39,0.83
			c-0.22,0.13-0.46,0.25-0.7,0.38c-0.59,0.32-1.24,0.64-1.96,0.96c-0.12,0.06-0.24,0.11-0.37,0.17v-0.01l0.56-5.78l0.29-2.93
			l1.02-10.57l0.16-1.6c0,0,0,0,0-0.01l1.69-17.42l1.41-14.49l4.34-44.61l1.31,41.41l0.09,2.86l0.61,19.19l0.68,21.34l0.04,1.35
			l0.07,2.01c0,0.01,0,0.02,0,0.02l0.04,1.43l0.69,21.5l0.19,6.21l0.31,9.53l0.07,2.49l1.16,36.39l0.77,24.43v0.01L413.45,387.37z"
			/>
		<polygon style="fill:#E4E4EF;" points="146.525,251.149 114.204,251.149 117.84,220.422 150.161,220.422 		"/>
		<polygon style="fill:#BBBBEA;" points="185.679,251.149 153.358,251.149 156.994,220.422 189.315,220.422 		"/>
		<polygon style="fill:#E4E4EF;" points="223.975,251.149 191.653,251.149 195.289,220.422 227.611,220.422 		"/>
		<polygon style="fill:#BBBBEA;" points="263.129,251.149 230.808,251.149 234.444,220.422 266.765,220.422 		"/>
		<polygon style="fill:#E4E4EF;" points="302.578,251.149 270.257,251.149 273.893,220.422 306.214,220.422 		"/>
		<polygon style="fill:#BBBBEA;" points="341.732,251.149 309.411,251.149 313.047,220.422 345.368,220.422 		"/>
		<polygon style="fill:#E4E4EF;" points="380.028,251.149 347.706,251.149 351.342,220.422 383.663,220.422 		"/>
		<polygon style="fill:#BBBBEA;" points="141.43,293.502 109.109,293.502 112.745,262.775 145.066,262.775 		"/>
		<polygon style="fill:#E4E4EF;" points="180.584,293.502 148.263,293.502 151.899,262.775 184.22,262.775 		"/>
		<polygon style="fill:#BBBBEA;" points="218.88,293.502 186.558,293.502 190.194,262.775 222.516,262.775 		"/>
		<polygon style="fill:#E4E4EF;" points="258.034,293.502 225.713,293.502 229.349,262.775 261.67,262.775 		"/>
		<polygon style="fill:#BBBBEA;" points="297.483,293.502 265.162,293.502 268.798,262.775 301.119,262.775 		"/>
		<polygon style="fill:#E4E4EF;" points="336.637,293.502 304.316,293.502 307.952,262.775 340.273,262.775 		"/>
		<polygon style="fill:#BBBBEA;" points="378.57,262.78 375.73,286.72 375.72,286.85 374.93,293.5 342.61,293.5 343.55,285.58 
			343.69,284.39 344.41,278.28 346.25,262.78 		"/>
		<polygon style="fill:#E4E4EF;" points="105.26,334.7 106.02,335.86 105.12,335.86 		"/>
		<path style="fill:#E4E4EF;" d="M141.08,305.13l-3.63,30.73h-11.74l-14.05-22.1l-1.39-2.18c-0.07,0.11-0.15,0.22-0.23,0.32
			c-0.04,0.05-0.08,0.1-0.13,0.15c-0.07,0.1-0.15,0.19-0.24,0.27c-0.63,0.63-1.34,0.93-1.89,1.07l0.57-4.82l0.41-3.44H141.08z"/>
		<polygon style="fill:#BBBBEA;" points="176.6,335.856 144.279,335.856 147.915,305.129 180.236,305.129 		"/>
		<polygon style="fill:#E4E4EF;" points="214.896,335.856 182.574,335.856 186.21,305.129 218.532,305.129 		"/>
		<polygon style="fill:#BBBBEA;" points="254.05,335.856 221.729,335.856 225.365,305.129 257.686,305.129 		"/>
		<polygon style="fill:#E4E4EF;" points="293.499,335.856 261.178,335.856 264.814,305.129 297.135,305.129 		"/>
		<polygon style="fill:#BBBBEA;" points="332.653,335.856 300.332,335.856 303.968,305.129 336.289,305.129 		"/>
		<polygon style="fill:#BBBBEA;" points="132.351,378.209 100.03,378.209 103.666,347.482 135.987,347.482 		"/>
		<polygon style="fill:#E4E4EF;" points="171.505,378.209 139.184,378.209 142.82,347.482 175.141,347.482 		"/>
		<polygon style="fill:#BBBBEA;" points="209.801,378.209 177.479,378.209 181.115,347.482 213.437,347.482 		"/>
		
			<linearGradient id="SVGID_00000002382817398124426640000003885464901286547391_" gradientUnits="userSpaceOnUse" x1="257.99" y1="341.215" x2="407.28" y2="341.215">
			<stop  offset="0" style="stop-color:#D3D3D3"/>
			<stop  offset="1" style="stop-color:#FFFFFF"/>
		</linearGradient>
		<path style="fill:url(#SVGID_00000002382817398124426640000003885464901286547391_);" d="M398.66,281.64h-0.01
			c-3.07,0.97-6.79,2.04-10.86,3c-1.83,0.43-3.73,0.84-5.67,1.2c-1.96,0.37-3.97,0.7-6.01,0.96c-0.13,0.02-0.26,0.03-0.39,0.05
			c-8.81,1.11-17.99,1.02-25.38-1.86c-2.14-0.83-4.13-1.89-5.92-3.23c0,0-0.23,0.93-0.73,2.63c-0.1,0.34-0.21,0.71-0.33,1.11
			c-1.21,3.99-3.48,10.95-7.08,19.71c-3.61,8.79-8.54,19.39-15.06,30.65c-10.46,18.06-25,37.79-44.65,54.36
			c-5.74,4.84-11.91,9.41-18.54,13.59c-0.01,0-0.03,0.01-0.04,0.02c0.01-0.01,0.03-0.01,0.06-0.02c0.05-0.03,0.12-0.06,0.22-0.1
			c0.1-0.04,0.22-0.09,0.36-0.16c0.07-0.03,0.14-0.06,0.23-0.1c0.16-0.07,0.35-0.15,0.55-0.24c0.31-0.14,0.67-0.29,1.08-0.48
			c0.27-0.12,0.56-0.25,0.87-0.39c0.03-0.01,0.07-0.03,0.11-0.05c0.43-0.19,0.91-0.41,1.41-0.64c0.74-0.33,1.55-0.71,2.43-1.12
			c0.44-0.2,0.9-0.42,1.38-0.64c0.47-0.23,0.97-0.46,1.48-0.7c0.63-0.31,1.29-0.62,1.98-0.95c0.36-0.17,0.73-0.35,1.11-0.54
			c0.34-0.16,0.68-0.33,1.03-0.5c0.59-0.28,1.19-0.58,1.81-0.88c0.62-0.31,1.25-0.62,1.9-0.94c3.03-1.51,6.36-3.21,9.94-5.1
			c1.38-0.73,2.79-1.48,4.24-2.26c0.79-0.43,1.58-0.86,2.39-1.3c0.42-0.23,0.84-0.46,1.27-0.7c0.42-0.22,0.83-0.45,1.25-0.69
			c3.56-1.96,7.27-4.08,11.09-6.33c0.68-0.4,1.36-0.8,2.04-1.21c1.55-0.92,3.11-1.86,4.69-2.83c0.97-0.59,1.95-1.19,2.93-1.8
			c0.99-0.62,1.98-1.24,2.97-1.87c0.66-0.41,1.31-0.83,1.97-1.25c1.89-1.21,3.8-2.46,5.71-3.73c0.96-0.63,1.92-1.27,2.88-1.92
			c3.36-2.27,6.73-4.63,10.09-7.07c0.48-0.35,0.96-0.7,1.44-1.05c1.92-1.4,3.83-2.83,5.74-4.29c0.71-0.55,1.43-1.1,2.14-1.66
			c0.91-0.7,1.82-1.42,2.72-2.15c0.37-0.29,0.74-0.59,1.11-0.88c0.98-0.79,1.96-1.58,2.93-2.38c0.79-0.66,1.58-1.32,2.37-1.98
			c0.92-0.78,1.84-1.56,2.75-2.35c0.11-0.1,0.23-0.2,0.34-0.3c0.8-0.69,1.59-1.39,2.38-2.09c0.22-0.2,0.45-0.4,0.67-0.6
			c1.01-0.91,2.01-1.82,3.01-2.74c0.55-0.51,1.1-1.02,1.64-1.54c0.44-0.41,0.88-0.82,1.31-1.24c0.87-0.83,1.73-1.67,2.58-2.51
			c0.34-0.34,0.69-0.68,1.03-1.03c0.35-0.35,0.69-0.69,1.03-1.04c0.85-0.86,1.69-1.72,2.52-2.59c1.5-1.59,2.97-3.19,4.41-4.81
			c0.85-0.95,1.68-1.91,2.5-2.88c0.34-0.39,0.68-0.79,1.01-1.19c0.06-0.07,0.12-0.15,0.18-0.22c0.55-0.65,1.09-1.31,1.62-1.97
			c0.84-1.04,1.66-2.08,2.47-3.14c2.7-3.52,5.22-7.12,7.52-10.78c0-0.01,0-0.01,0-0.01c0.01,0,0.01,0,0.01-0.01
			c0.36-0.57,0.71-1.14,1.06-1.72c2.25-3.73,4.28-7.52,6.02-11.38c-0.28,0.4-1.9,2.75-3.4,5.43c-0.15,0.27-0.3,0.55-0.45,0.82
			c-0.01,0.02-0.02,0.03-0.03,0.05c-0.19,0.36-0.38,0.72-0.56,1.09c-0.22,0.45-0.44,0.9-0.63,1.34c-0.12,0.27-0.24,0.54-0.34,0.8
			c-0.31,0.04-0.75,0.09-1.34,0.15h-0.01c-2.58,0.25-7.83,0.6-15.96,0.41c-4.17-0.09-9.13-1.53-13.84-3.38h3
			c3.95,0.51,7.55,0.64,10.8,0.5c0.6-0.03,1.19-0.06,1.76-0.11c0.49-0.03,0.97-0.08,1.44-0.13c0.28-0.02,0.56-0.05,0.83-0.09
			c0.06,0,0.11-0.01,0.16-0.02c0.38-0.04,0.75-0.09,1.12-0.15c0.02,0,0.05,0,0.07-0.01c0.41-0.06,0.82-0.13,1.22-0.2
			c0.19-0.03,0.39-0.06,0.57-0.1c0.19-0.03,0.38-0.06,0.56-0.1c0.1-0.02,0.2-0.04,0.3-0.06c0.27-0.05,0.53-0.11,0.79-0.16
			c0.03-0.01,0.07-0.02,0.11-0.03c0.42-0.09,0.83-0.19,1.23-0.29c0.49-0.12,0.96-0.25,1.42-0.39c0.02,0,0.05-0.01,0.07-0.02
			c0.23-0.06,0.45-0.13,0.67-0.2c0.07-0.02,0.13-0.04,0.19-0.06c0.18-0.05,0.35-0.11,0.52-0.16l0.01-0.01
			c0.56-0.17,1.1-0.36,1.6-0.55c0.48-0.19,0.94-0.37,1.38-0.56c0.14-0.06,0.27-0.11,0.4-0.17c0.06-0.02,0.12-0.05,0.18-0.07
			c0.13-0.06,0.25-0.11,0.37-0.17c0.72-0.32,1.37-0.64,1.96-0.96c0.24-0.13,0.48-0.25,0.7-0.38c0.53-0.3,0.99-0.58,1.39-0.83
			c0.13-0.09,0.25-0.17,0.37-0.25c0.35-0.23,0.64-0.44,0.86-0.6c0.19-0.15,0.34-0.26,0.43-0.33c0.03-0.02,0.05-0.04,0.07-0.05h0.01
			c0.01-0.01,0.01-0.02,0.02-0.03v-0.01c0.01-0.01,0.01,0,0.01,0v-0.01c0.01-0.01,0.01-0.01,0.01-0.01c0.51-1.13,1-2.26,1.46-3.39
			c0.65-1.57,1.25-3.15,1.81-4.74C407.28,278.6,403.92,279.97,398.66,281.64z"/>
		<g>
			<g id="XMLID_31_">
				<g>
					<path style="fill:#302C3F;" d="M453.192,399.399l-8.863,12.626c-3.743-7.572,2.214-11.201,2.214-11.201l3.392-3.952
						L453.192,399.399z"/>
					<path style="fill:#F4C09A;" d="M449.933,396.872l-3.392,3.952c0,0-8.987-3.724-17.936-8.265
						c0.409-4.056,0.798-8.113,1.15-11.961L449.933,396.872z"/>
					<path style="fill:#162B2B;" d="M440.647,289.61c3.069,19.594-1.069,23.463-12.811,23.852c-0.114-0.171-0.247-0.351-0.38-0.532
						c0.465-0.285,0.798-0.513,0.96-0.694c3.534-3.838,2.974-20.615,2.024-26.201c-0.029-0.181-0.076-0.361-0.133-0.532
						c0-0.01-0.01-0.029-0.01-0.038c-0.047-0.142-0.104-0.275-0.171-0.408c-0.019-0.038-0.028-0.067-0.047-0.104
						c-0.066-0.114-0.133-0.228-0.209-0.332c-0.029-0.048-0.057-0.086-0.086-0.124c-0.086-0.114-0.181-0.219-0.275-0.323
						c-0.095-0.095-0.19-0.19-0.294-0.275c-0.029-0.029-0.066-0.057-0.105-0.086c-0.104-0.095-0.218-0.171-0.342-0.256
						c-0.038-0.019-0.076-0.048-0.124-0.086c-0.133-0.076-0.275-0.152-0.418-0.228c-0.181-0.095-0.371-0.181-0.56-0.257
						c-0.162-0.066-0.333-0.124-0.504-0.18c-0.171-0.057-0.342-0.114-0.522-0.152c-0.047-0.019-0.095-0.029-0.143-0.038
						c-0.161-0.047-0.332-0.085-0.503-0.124c-0.029,0-0.057-0.009-0.086-0.019c-0.532-0.104-1.092-0.181-1.653-0.228
						c-0.466-0.038-0.931-0.066-1.396-0.076c-2.822-2.147-1.919-6.469-1.919-6.469c7.419-15.732-8.987-18.478-8.987-18.478
						c-2.764-0.76-4.931-1.615-6.612-2.508c-4.19-2.185-5.444-4.531-5.814-5.824c-0.19-0.636-0.162-1.017-0.162-1.017
						s-1.435,7.268-0.845,14.659c-0.817,2.66-2.128,5.31-4.18,7.59c-7.667,8.493-6.489,16.378-6.489,16.378
						c-0.209,0.038-0.408,0.076-0.608,0.114c-0.409,0.076-0.798,0.161-1.168,0.237c-0.057,0.01-0.104,0.019-0.152,0.029
						c-0.285,0.057-0.561,0.114-0.827,0.171c-0.038,0-0.066,0.009-0.105,0.019c-0.247,0.048-0.475,0.105-0.712,0.152
						c-0.256,0.057-0.513,0.104-0.75,0.161c-0.504,0.114-1.064,0.171-1.682,0.18c2.565-17.832,8.987-13.063,10.013-28.918
						c1.092-17.1-1.13-20.748,15.418-21.375c16.549-0.636,23.436-2.223,23.911,13.614
						C431.665,266.722,437.762,271.19,440.647,289.61z"/>
					
						<linearGradient id="SVGID_00000101062783770364543050000001278625960234271377_" gradientUnits="userSpaceOnUse" x1="416.8691" y1="326.448" x2="413.4941" y2="297.698">
						<stop  offset="0" style="stop-color:#C0445F"/>
						<stop  offset="1" style="stop-color:#903654"/>
					</linearGradient>
					<path style="fill:url(#SVGID_00000101062783770364543050000001278625960234271377_);" d="M431.152,357.77
						c-5.51,1.245-11.058,1.387-15.675,1.121c-3.943-0.219-7.229-0.741-9.253-1.13c-1.406-0.266-2.214-0.475-2.214-0.475
						c-1.871-8.483-2.318-26.923-2.185-34.552c9.994-2.631,22.021-7.619,25.631-9.804c0.133,0.181,0.266,0.361,0.38,0.532
						c11.324,15.969,5.254,43.823,5.254,43.823C432.444,357.466,431.798,357.628,431.152,357.77z"/>
					<path style="fill:#FFDEC0;" d="M431.152,357.77c0.171,3.667-0.466,12.531-1.397,22.828c-0.352,3.848-0.741,7.904-1.15,11.961
						c-4.199-2.138-8.379-4.446-11.637-6.659c-0.76-14.592-1.492-26.999-1.492-26.999v-0.009
						C420.094,359.157,425.642,359.015,431.152,357.77z"/>
					<path style="fill:#FFDEC0;" d="M428.606,392.559c-1.862,18.706-4.066,37.563-4.066,37.563h-5.862
						c0.171-6.203-0.798-26.78-1.71-44.222C420.227,388.113,424.407,390.422,428.606,392.559z"/>
					<path style="fill:#302C3F;" d="M424.54,430.122l0.627,4.826h-18.278c2.47-6.355,11.789-4.826,11.789-4.826H424.54z"/>
					<path style="fill:#F4C09A;" d="M402.927,274.835c-2.86-2.945-4.038-7.647-4.408-12.302c-0.589-7.391,0.845-14.659,0.845-14.659
						s-0.028,0.38,0.162,1.017c0.37,1.292,1.624,3.639,5.814,5.824C405.34,254.714,407.535,269.297,402.927,274.835z"/>
					<path style="fill:#FFDEC0;" d="M420.939,275.7l-3.525,1.472v5.377c-5.386,4.437-7.286,0-7.286,0c0.2-1.938-0.95-4.75-0.95-4.75
						c-2.669-0.285-4.703-1.358-6.251-2.964c4.608-5.538,2.413-20.121,2.413-20.121c1.681,0.893,3.848,1.748,6.612,2.508
						C411.952,257.222,428.359,259.968,420.939,275.7z"/>
					
						<linearGradient id="SVGID_00000006671811685670461650000017350414795030876081_" gradientUnits="userSpaceOnUse" x1="402.2622" y1="301.6833" x2="421.3059" y2="301.6833">
						<stop  offset="0" style="stop-color:#C0445F"/>
						<stop  offset="1" style="stop-color:#C75267"/>
					</linearGradient>
					<path style="fill:url(#SVGID_00000006671811685670461650000017350414795030876081_);" d="M420.464,290.073
						c1.719-3.145,0.646,10.573-1.786,15.2c-1.349,2.556-9.443,5.957-16.416,8.484c0.009-0.104,0.019-0.209,0.028-0.314
						c0.152-0.009,0.238-0.019,0.238-0.019S414.052,301.768,420.464,290.073z"/>
					<path style="fill:#F4C09A;" d="M415.477,358.901c0,0,0.732,12.407,1.492,26.999c-2.584-1.739-4.579-3.411-5.529-4.864
						c-4.712-7.201-5.215-23.275-5.215-23.275c2.023,0.389,5.31,0.912,9.253,1.13V358.901z"/>
					<path style="fill:#162B2B;" d="M403.48,303.21c0,0-0.7,4.03-1.19,10.23c-0.79,0.05-3.47,0.14-6.67-0.49h-0.01
						c-1.99-0.41-4.18-1.1-6.25-2.26c-4.05-2.29-7.6-6.41-8.11-13.81c8.13,0.19,13.38-0.16,15.96-0.41h0.01
						c0.59-0.06,1.03-0.11,1.34-0.15c-0.26,0.65-0.47,1.28-0.61,1.85c-0.14,0.58-0.21,1.11-0.17,1.56
						C398.05,303.5,403.48,303.21,403.48,303.21z"/>
					
						<linearGradient id="SVGID_00000166653925296756645970000004407416920068727734_" gradientUnits="userSpaceOnUse" x1="389.24" y1="292.935" x2="390.14" y2="292.935">
						<stop  offset="0" style="stop-color:#C0445F"/>
						<stop  offset="1" style="stop-color:#C75267"/>
					</linearGradient>
					<path style="fill:url(#SVGID_00000166653925296756645970000004407416920068727734_);" d="M390.14,292.84
						c-0.04,0.01-0.08,0.02-0.11,0.03c-0.26,0.05-0.52,0.11-0.79,0.16C389.55,292.97,389.85,292.9,390.14,292.84z"/>
					
						<linearGradient id="SVGID_00000114074630184610078200000003854970508469385349_" gradientUnits="userSpaceOnUse" x1="393.72" y1="291.795" x2="394.25" y2="291.795">
						<stop  offset="0" style="stop-color:#C0445F"/>
						<stop  offset="1" style="stop-color:#C75267"/>
					</linearGradient>
					<path style="fill:url(#SVGID_00000114074630184610078200000003854970508469385349_);" d="M394.25,291.71l-0.01,0.01
						c-0.17,0.05-0.34,0.11-0.52,0.16C393.9,291.83,394.07,291.77,394.25,291.71z"/>
					
						<linearGradient id="SVGID_00000101813767072289225500000012179041074769559182_" gradientUnits="userSpaceOnUse" x1="367.41" y1="291.8622" x2="403.97" y2="291.8622">
						<stop  offset="0" style="stop-color:#C0445F"/>
						<stop  offset="1" style="stop-color:#C75267"/>
					</linearGradient>
					<path style="fill:url(#SVGID_00000101813767072289225500000012179041074769559182_);" d="M403.97,286.79
						c-0.28,0.4-1.9,2.75-3.4,5.43c-0.15,0.27-0.3,0.55-0.45,0.82c-0.01,0.02-0.02,0.03-0.03,0.05c-0.19,0.36-0.38,0.72-0.56,1.09
						c-0.22,0.45-0.44,0.9-0.63,1.34c-0.12,0.27-0.24,0.54-0.34,0.8c-0.31,0.04-0.75,0.09-1.34,0.15h-0.01
						c-2.58,0.25-7.83,0.6-15.96,0.41c-4.17-0.09-9.13-1.53-13.84-3.38h3c3.95,0.51,7.55,0.64,10.8,0.5
						c0.6-0.03,1.19-0.06,1.76-0.11c0.49-0.03,0.97-0.08,1.44-0.13c0.28-0.02,0.56-0.05,0.83-0.09c0.06,0,0.11-0.01,0.16-0.02
						c0.38-0.04,0.75-0.09,1.12-0.15c0.02,0,0.05,0,0.07-0.01c0.61-0.09,1.21-0.19,1.79-0.3c0.19-0.03,0.38-0.06,0.56-0.1
						c0.1-0.02,0.2-0.04,0.3-0.06c0.27-0.05,0.53-0.11,0.79-0.16c0.03-0.01,0.07-0.02,0.11-0.03c0.42-0.09,0.83-0.19,1.23-0.29
						c0.49-0.12,0.96-0.25,1.42-0.39c0.02,0,0.05-0.01,0.07-0.02c0.23-0.06,0.45-0.13,0.67-0.2c0.07-0.02,0.13-0.04,0.19-0.06
						c0.18-0.05,0.35-0.11,0.52-0.16l0.01-0.01c0.56-0.17,1.1-0.36,1.6-0.55c0.48-0.19,0.94-0.37,1.38-0.56
						c0.14-0.06,0.27-0.11,0.4-0.17c0.06-0.02,0.12-0.05,0.18-0.07c0.13-0.06,0.25-0.11,0.37-0.17c0.72-0.32,1.37-0.64,1.96-0.96
						c0.24-0.13,0.48-0.25,0.7-0.38c0.53-0.3,0.99-0.58,1.39-0.83c0.13-0.09,0.25-0.17,0.37-0.25c0.35-0.23,0.64-0.44,0.86-0.6
						c0.19-0.15,0.34-0.26,0.43-0.33c0.03-0.02,0.05-0.04,0.07-0.05H403.97z"/>
					
						<linearGradient id="SVGID_00000000187116295101567920000013548258081067947426_" gradientUnits="userSpaceOnUse" x1="403.89" y1="286.7928" x2="404" y2="286.7928">
						<stop  offset="0" style="stop-color:#C0445F"/>
						<stop  offset="1" style="stop-color:#C75267"/>
					</linearGradient>
					<path style="fill:url(#SVGID_00000000187116295101567920000013548258081067947426_);" d="M404,286.75c0,0-0.01,0-0.01,0.01
						c-0.01,0.01-0.01,0.02-0.02,0.03h-0.01c-0.02,0.01-0.04,0.03-0.07,0.05c0.05-0.05,0.08-0.07,0.1-0.09
						C404,286.74,404,286.75,404,286.75z"/>
					<path style="fill:#FFDEC0;" d="M391.784,318.117l0.38,4.503c-19.009,9.5-15.818-1.444-13.31-2.147
						c2.536-0.712,7.134-0.323,7.134-0.323c-3.182-1.586-1.767-5.472-0.323-3.715C387.062,318.136,391.518,318.117,391.784,318.117z
						"/>
					
						<linearGradient id="SVGID_00000127764725558999385160000005359051522914907540_" gradientUnits="userSpaceOnUse" x1="350.31" y1="301.315" x2="431.1569" y2="301.315">
						<stop  offset="0" style="stop-color:#FF6A77"/>
						<stop  offset="1" style="stop-color:#C0445F"/>
					</linearGradient>
					<path style="fill:url(#SVGID_00000127764725558999385160000005359051522914907540_);" d="M428.42,312.24
						c-0.17,0.18-0.5,0.41-0.96,0.69c-1.02,0.62-2.7,1.46-4.82,2.4c-0.23,0.1-0.47,0.21-0.71,0.31c-0.61,0.27-1.24,0.54-1.91,0.82
						c-0.68,0.29-1.38,0.57-2.11,0.86c-0.86,0.34-1.76,0.69-2.67,1.04c0,0-0.01,0.01-0.02,0.01c-0.61,0.22-1.22,0.45-1.84,0.68
						c-0.68,0.25-1.37,0.5-2.07,0.74c-1.57,0.55-3.18,1.08-4.77,1.58c-0.8,0.25-1.59,0.49-2.38,0.71c-0.19,0.06-0.39,0.12-0.58,0.17
						c-0.59,0.17-1.17,0.33-1.75,0.48c-3.6,0.95-6.93,1.6-9.51,1.7l-0.16-1.81l-0.38-4.5l-0.06-0.85c0,0,4.9-1.47,10.54-3.51
						c1.84-0.67,3.76-1.4,5.61-2.15c1.08-0.44,2.13-0.89,3.13-1.35c0.24-0.1,0.47-0.21,0.7-0.32c0.7-0.33,1.36-0.65,1.99-0.97
						c0.22-0.11,0.42-0.22,0.62-0.33c0.2-0.11,0.4-0.22,0.59-0.32c1.53-0.86,2.72-1.7,3.38-2.48c0.08-0.09,0.16-0.19,0.22-0.29
						c0.07-0.09,0.13-0.19,0.18-0.28c2.43-4.62,3.5-18.34,1.78-15.2c-0.17,0.31-0.34,0.62-0.52,0.93c-0.14,0.24-0.28,0.49-0.42,0.73
						c-0.59,0.99-1.2,1.98-1.84,2.96c-0.4,0.61-0.8,1.22-1.21,1.82c-0.26,0.37-0.52,0.74-0.77,1.11c-0.37,0.52-0.74,1.03-1.11,1.53
						c-1.26,1.73-2.55,3.38-3.78,4.9c-0.84,1.04-1.65,2.01-2.42,2.91c-0.39,0.45-0.75,0.88-1.1,1.28c-1.34,1.53-2.49,2.78-3.32,3.67
						c-0.12,0.13-0.23,0.25-0.33,0.36c-0.7,0.74-1.11,1.15-1.11,1.15s-0.09,0.01-0.24,0.02c0.49-6.2,1.19-10.23,1.19-10.23
						s-5.43,0.29-5.7-3.48c-0.04-0.45,0.03-0.98,0.17-1.56c0.14-0.57,0.35-1.2,0.61-1.85c0.1-0.26,0.22-0.53,0.34-0.8
						c0.19-0.44,0.41-0.89,0.63-1.34c0.18-0.37,0.37-0.73,0.56-1.09c0.01-0.02,0.02-0.03,0.03-0.05c0.15-0.27,0.3-0.55,0.45-0.82
						c1.5-2.68,3.12-5.03,3.4-5.43h-0.01c-0.02,0.01-0.04,0.03-0.07,0.05c-0.09,0.07-0.24,0.18-0.43,0.33
						c-0.22,0.16-0.51,0.37-0.86,0.6c-0.12,0.08-0.24,0.16-0.37,0.25c-0.4,0.25-0.86,0.53-1.39,0.83c-0.22,0.13-0.46,0.25-0.7,0.38
						c-0.59,0.32-1.24,0.64-1.96,0.96c-0.12,0.05-0.24,0.11-0.37,0.16c-0.06,0.03-0.12,0.05-0.18,0.08
						c-0.13,0.06-0.26,0.11-0.4,0.17c-0.44,0.19-0.9,0.37-1.38,0.56c-0.5,0.19-1.04,0.38-1.6,0.55l-0.01,0.01
						c-0.17,0.05-0.34,0.11-0.52,0.16c-0.06,0.02-0.12,0.04-0.19,0.06c-0.22,0.07-0.44,0.14-0.67,0.2
						c-0.02,0.01-0.05,0.02-0.07,0.02c-0.46,0.14-0.93,0.27-1.42,0.39c-0.4,0.1-0.81,0.2-1.23,0.29c-0.04,0.01-0.08,0.02-0.11,0.03
						c-0.26,0.05-0.52,0.11-0.79,0.16c-0.1,0.02-0.2,0.04-0.3,0.06c-0.18,0.04-0.37,0.07-0.56,0.1c-0.18,0.04-0.38,0.07-0.57,0.1
						c-0.4,0.07-0.81,0.14-1.22,0.2c-0.02,0.01-0.05,0.01-0.07,0.01c-0.37,0.06-0.74,0.11-1.12,0.15c-0.05,0.01-0.1,0.02-0.16,0.02
						c-0.27,0.04-0.55,0.07-0.83,0.09c-0.47,0.05-0.95,0.1-1.44,0.13c-0.57,0.05-1.16,0.08-1.76,0.11c-3.25,0.14-6.85,0.01-10.8-0.5
						c-1.63-0.21-3.31-0.48-5.06-0.83c-8.13-3.42-15.01-7.67-15.01-7.67v-0.01c-0.02-0.12-0.03-0.25-0.03-0.38
						c0-2.39,2.82-6.41,2.82-6.41s12.95,6.21,22.6,8.52c0.13,0.03,0.25,0.06,0.38,0.08c2.15,0.51,4.13,0.8,5.74,0.77
						c0.61-0.01,1.17-0.07,1.68-0.19c0.24-0.05,0.49-0.1,0.75-0.16c0.24-0.04,0.46-0.1,0.71-0.15c0.04-0.01,0.07-0.02,0.11-0.02
						c0.26-0.05,0.54-0.11,0.82-0.17c0.05-0.01,0.1-0.02,0.15-0.03c0.37-0.07,0.76-0.16,1.17-0.23c0.2-0.04,0.4-0.08,0.61-0.12
						c0.5-0.1,1.02-0.2,1.55-0.3c2.37-0.45,5-0.92,7.53-1.38c0.49-0.08,0.97-0.18,1.44-0.25c0.09-0.02,0.18-0.04,0.27-0.05
						c2.19-0.38,4.27-0.75,6.04-1.05c0.25-0.04,0.49-0.08,0.73-0.12c0.02,0,0.04-0.01,0.06-0.01c0.27-0.05,0.53-0.09,0.78-0.14
						c0.04,0,0.08-0.01,0.11-0.02c0.51-0.08,0.98-0.17,1.4-0.24c0.12-0.02,0.24-0.04,0.35-0.06c0.5-0.08,0.91-0.15,1.24-0.2
						c0.29-0.05,0.5-0.08,0.63-0.1c0.02-0.01,0.04-0.01,0.06-0.01c0.04-0.01,0.07-0.01,0.08-0.02c0.01,0,0.01,0,0.01,0
						s1.9,4.44,7.28,0c0,0,2.59-0.45,5.45-0.38c0.46,0.01,0.93,0.04,1.39,0.08c0.57,0.04,1.13,0.12,1.66,0.22
						c0.03,0.01,0.05,0.02,0.08,0.02c0.17,0.04,0.35,0.08,0.51,0.13c0.04,0.01,0.09,0.01,0.14,0.03c0.18,0.04,0.35,0.1,0.52,0.16
						c0.17,0.05,0.34,0.11,0.51,0.18c0.19,0.07,0.38,0.16,0.56,0.25c0.14,0.08,0.28,0.15,0.41,0.23c0.05,0.04,0.09,0.07,0.13,0.09
						c0.12,0.08,0.23,0.16,0.34,0.25c0.04,0.03,0.08,0.06,0.1,0.09c0.11,0.08,0.2,0.18,0.3,0.27c0.09,0.11,0.19,0.21,0.27,0.33
						c0.03,0.03,0.06,0.07,0.09,0.12c0.08,0.1,0.14,0.22,0.21,0.33c0.02,0.04,0.03,0.07,0.05,0.11c0.06,0.13,0.12,0.26,0.17,0.41
						c0,0.01,0.01,0.02,0.01,0.03c0.05,0.17,0.1,0.36,0.13,0.54C431.39,291.62,431.95,308.4,428.42,312.24z"/>
					
						<linearGradient id="SVGID_00000138544468714247888280000010811704315803323799_" gradientUnits="userSpaceOnUse" x1="365.35" y1="293.085" x2="370.41" y2="293.085">
						<stop  offset="0" style="stop-color:#C0445F"/>
						<stop  offset="1" style="stop-color:#C75267"/>
					</linearGradient>
					<path style="fill:url(#SVGID_00000138544468714247888280000010811704315803323799_);" d="M370.41,293.5h-3
						c-0.69-0.27-1.38-0.55-2.06-0.83C367.1,293.02,368.78,293.29,370.41,293.5z"/>
					<path style="fill:#FFDEC0;" d="M345.443,286.416l-2.081-0.912c0,0-2.698-3.087-1.339-5.823
						c1.368-2.727,11.105-1.482,11.105-1.482s-3.145,4.493-2.784,6.802c0,0-2.888,3.116-4.522,2.565
						C345.329,287.394,345.272,286.948,345.443,286.416z"/>
				</g>
			</g>
			<g>
				<path style="fill:#1C3534;" d="M422.858,282.169c-2.859-0.066-5.444,0.38-5.444,0.38v-5.377l3.525-1.472
					C420.939,275.7,420.037,280.022,422.858,282.169z"/>
			</g>
			<g>
				<path style="fill:#1C3534;" d="M410.128,282.549c0,0-0.029,0.01-0.086,0.019c-0.019,0-0.038,0-0.066,0.01
					c-0.504,0.076-2.204,0.361-4.57,0.77c-0.237,0.038-0.475,0.086-0.722,0.124c-1.777,0.304-3.857,0.665-6.042,1.045
					c-0.56,0.095-1.13,0.199-1.71,0.304c-2.536,0.456-5.158,0.931-7.533,1.378c-0.532,0.104-1.045,0.199-1.549,0.304
					c0,0-1.178-7.885,6.489-16.378c2.052-2.28,3.363-4.93,4.18-7.59c0.37,4.655,1.548,9.357,4.408,12.302
					c1.548,1.605,3.582,2.679,6.251,2.964C409.178,277.799,410.328,280.611,410.128,282.549z"/>
				<path style="fill:none;" d="M399.526,248.891c-0.095-0.646-0.161-1.016-0.161-1.016"/>
			</g>
		</g>
		<g>
			<g id="XMLID_32_">
				<g>
					<path style="fill:#FFD4A6;" d="M166.767,222.224c2.46-1.777,1.624,5.187-2.926,8.16c0,0,4.55,1.862,2.536,6.014
						c-2.023,4.152-8.389,2.299-8.389,2.299c-0.807-1.568-2.689-3.192-3.885-4.123C154.103,234.574,164.316,224.01,166.767,222.224z
						"/>
					<path style="fill:#2C7184;" d="M158.38,240.07c0,0-1.62,1.71-4.24,4.45c-4.17,4.38-10.89,11.4-17.57,18.26
						c-8.7,8.95-17.32,17.63-20.11,19.82c0,0-0.57,4.72-1.44,10.9c-0.5,3.59-1.11,7.69-1.77,11.63c-0.51,3.07-1.05,6.04-1.59,8.63
						l-1.39-2.18c0.63-0.97,1.07-2.44,1.01-4.64c-0.01-0.37-0.04-0.72-0.09-1.04c-0.02-0.09-0.03-0.19-0.05-0.28
						c-0.03-0.17-0.07-0.34-0.11-0.49c0-0.02-0.01-0.04-0.02-0.05c-0.04-0.16-0.09-0.31-0.14-0.45c-0.05-0.16-0.12-0.31-0.19-0.45
						c-0.06-0.13-0.13-0.25-0.2-0.36c0-0.01,0-0.02-0.01-0.02c-0.01-0.03-0.02-0.05-0.04-0.07c-0.15-0.24-0.31-0.44-0.49-0.62
						c-0.08-0.09-0.17-0.17-0.26-0.26c-0.01,0-0.02-0.01-0.03-0.02c-0.1-0.08-0.2-0.16-0.31-0.23c-0.05-0.04-0.1-0.08-0.16-0.11
						c-0.11-0.07-0.22-0.13-0.33-0.18c-0.05-0.03-0.11-0.05-0.17-0.08c-0.12-0.06-0.24-0.11-0.37-0.15
						c-0.11-0.04-0.21-0.07-0.32-0.1c-0.17-0.05-0.35-0.09-0.52-0.12c-0.07-0.01-0.14-0.02-0.2-0.03c-1.6-0.23-3.08,0.19-3.08,0.19
						l-12.05-18.94v-0.01l-8.68-13.64c3-0.35,5.25-0.49,5.25-0.49l4.36,4.51v0.01l1.9,1.96l2.81-5.22c0,0,7.82-1.26,10.61-3.53
						c0.46-0.38,2.01-1.54,4.27-3.22c0.29-0.22,0.6-0.44,0.91-0.67c4.02-2.99,9.84-7.27,15.79-11.63
						c7.02-5.16,14.21-10.43,18.8-13.78c3-2.2,4.88-3.58,4.88-3.58s0.44,0.29,1.06,0.78c0.16,0.13,0.34,0.27,0.53,0.43
						c0.19,0.15,0.38,0.32,0.58,0.49c0.59,0.52,1.22,1.12,1.76,1.75c0.08,0.09,0.16,0.19,0.24,0.29c0.09,0.11,0.17,0.21,0.24,0.32
						c0.1,0.12,0.19,0.25,0.26,0.38c0.04,0.06,0.08,0.12,0.11,0.18c0.06,0.09,0.12,0.19,0.17,0.29
						C158.24,239.17,158.38,239.64,158.38,240.07z"/>
					<path style="fill:#FC92B3;" d="M131.265,344.603l4.712,7.4c-3.449,9.377-13.936,8.227-13.936,8.227l-3.99-6.07
						C118.051,354.16,126.287,351.339,131.265,344.603z"/>
					<path style="fill:#999999;" d="M129.631,342.029l1.634,2.574c-4.978,6.736-13.215,9.557-13.215,9.557l-1.729-2.632
						C124.216,351.377,129.631,342.029,129.631,342.029z"/>
					<path style="fill:#BFBFBF;" d="M128.244,339.853l1.387,2.176c0,0-5.415,9.348-13.31,9.5l-1.834-2.793
						C123.171,348.546,128.244,339.853,128.244,339.853z"/>
					<path style="fill:#302C3F;" d="M113.519,423.567c2.993-0.37,14.649-1.32,15.333,5.786h-27.55l0.238-5.7l0.551-0.342h11.4
						L113.519,423.567z"/>
					<path style="fill:#999999;" d="M128.24,339.85c0,0-0.62,1.07-1.82,2.47c-0.12,0.14-0.24,0.29-0.37,0.43
						c-0.65,0.73-1.44,1.53-2.36,2.29c-0.16,0.13-0.31,0.26-0.48,0.38l-0.03,0.03c-0.23,0.17-0.46,0.34-0.7,0.51
						c-0.26,0.18-0.52,0.36-0.78,0.52h-0.01c-0.28,0.18-0.56,0.35-0.86,0.51c-0.3,0.16-0.6,0.32-0.92,0.46
						c-0.02,0.01-0.04,0.02-0.06,0.03c-0.2,0.09-0.4,0.18-0.61,0.26c-0.16,0.07-0.33,0.13-0.5,0.19c-0.16,0.06-0.33,0.12-0.5,0.17
						c-0.04,0.01-0.07,0.02-0.11,0.04c-0.12,0.04-0.24,0.07-0.37,0.1c-0.02,0.01-0.04,0.02-0.06,0.02c-0.19,0.05-0.38,0.1-0.57,0.14
						c-0.01,0.01-0.03,0.01-0.05,0.01c-0.19,0.05-0.39,0.09-0.59,0.12c-0.18,0.04-0.37,0.07-0.55,0.09
						c-0.16,0.03-0.31,0.04-0.47,0.06c-0.08,0.01-0.16,0.01-0.25,0.02c-0.24,0.02-0.48,0.03-0.73,0.04h-0.01l-0.82-1.26l-0.12-0.18
						c-0.1-1.02-0.2-2.06-0.32-3.11c0.97-0.13,2.29-0.39,3.8-0.92c1.88-0.65,4.03-1.71,6.08-3.44c1.07-0.88,2.11-1.96,3.07-3.24
						L128.24,339.85z"/>
					<path style="fill:#242451;" d="M114.97,393.58c-0.08,3.67-0.19,7.11-0.31,10.26c-0.06,1.47-0.12,2.87-0.19,4.2
						c-0.11,2.46-0.24,4.69-0.36,6.63c-0.33,5.44-0.62,8.64-0.62,8.64h-11.4c0.2-1.3,0.25-4.43,0.18-8.79
						c-0.03-2.16-0.08-4.61-0.16-7.3c-0.03-1.09-0.07-2.22-0.11-3.38c-0.1-2.94-0.21-6.1-0.35-9.38c-0.21-5.18-0.46-10.7-0.72-16.25
						c-0.09-1.8-0.18-3.6-0.26-5.4c-0.31-6.24-0.63-12.39-0.93-18.02c0-0.01,0-0.01,0-0.02c-0.79-14.63-1.45-25.75-1.45-25.75
						l2.24-1.48l0.02-0.01l4.71,7.17l0.76,1.16l5.57,8.48l1.95,2.96c0.01,0.06,0.01,0.12,0.02,0.18c0.98,10.38,1.4,20.93,1.49,30.73
						C115.11,383.61,115.07,388.79,114.97,393.58z"/>
					<path style="fill:#999999;" d="M113.54,347.3l-1.95-2.96c0.03,0,0.65,0,1.63-0.15C113.34,345.24,113.44,346.28,113.54,347.3z"
						/>
					
						<linearGradient id="SVGID_00000165200506590237962410000000774044632601545114_" gradientUnits="userSpaceOnUse" x1="112.2586" y1="335.9264" x2="112.0914" y2="335.639">
						<stop  offset="0" style="stop-color:#FFCB6F"/>
						<stop  offset="1" style="stop-color:#F4EF5F"/>
					</linearGradient>
					<path style="fill:url(#SVGID_00000165200506590237962410000000774044632601545114_);" d="M112.25,335.93l-0.05-0.07h0.04
						C112.25,335.88,112.25,335.91,112.25,335.93z"/>
					
						<linearGradient id="SVGID_00000055706398579625313380000007845389934471272103_" gradientUnits="userSpaceOnUse" x1="113.9887" y1="345.0343" x2="96.4813" y2="314.9556">
						<stop  offset="0" style="stop-color:#FFCB6F"/>
						<stop  offset="1" style="stop-color:#F4EF5F"/>
					</linearGradient>
					<path style="fill:url(#SVGID_00000055706398579625313380000007845389934471272103_);" d="M117.02,343.27
						c-1.51,0.53-2.83,0.79-3.8,0.92c-0.98,0.15-1.6,0.15-1.63,0.15l-5.57-8.48l-0.76-1.16l-4.71-7.17l-4.56-6.93l-2.54-3.88
						c0.45-0.08,0.9-0.17,1.34-0.25c0.29-0.06,0.58-0.12,0.87-0.18c0.36-0.07,0.72-0.14,1.07-0.22c0.33-0.07,0.66-0.14,0.98-0.21
						c0.45-0.1,0.89-0.2,1.31-0.3l3.27,5.04l3.92,6.04l5.99,9.22l0.05,0.07L117.02,343.27z"/>
					<path style="fill:#1E242B;" d="M111.277,230.223c-1.131,2.328-3.467,3.638-6.299,4.342c-2.308,0.589-4.94,0.77-7.524,0.788
						h-0.332c-4.114,0.01-8.037-0.399-10.232-0.304c-5.301,0.238-0.275,7.211-1.425,9.738c-1.15,2.537-4.351,1.587-4.351,1.587
						s-1.244-0.997-2.593-1.311v-0.01c-2.061-6.45-3.107-11.429-0.418-16.654c2.689-5.225,13.461-1.102,19.789-3.477
						C104.228,222.547,114.84,222.899,111.277,230.223z"/>
					<path style="fill:#FFD4A6;" d="M111.28,306.94c0.06,2.2-0.38,3.67-1.01,4.64l-1.92-3.01l-1.59-2.5v-0.16l-2.54-3.85l-0.03-0.04
						c0,0,1.48-0.42,3.08-0.19c0.07,0.01,0.14,0.02,0.2,0.03c0.17,0.03,0.35,0.07,0.52,0.12c0.11,0.03,0.21,0.06,0.32,0.1
						c0.13,0.04,0.25,0.09,0.37,0.15c0.06,0.03,0.12,0.05,0.17,0.08c0.11,0.05,0.22,0.11,0.33,0.18c0.06,0.03,0.11,0.07,0.16,0.11
						c0.11,0.07,0.21,0.15,0.31,0.23c0.01,0.01,0.02,0.02,0.03,0.02c0.09,0.09,0.18,0.17,0.26,0.26c0.18,0.18,0.34,0.38,0.49,0.62
						c0.01,0.02,0.03,0.04,0.04,0.07c0.01,0,0.01,0.01,0.01,0.02c0.07,0.11,0.14,0.23,0.2,0.36c0.07,0.14,0.14,0.29,0.19,0.45
						c0.05,0.14,0.1,0.29,0.14,0.45c0.01,0.01,0.02,0.03,0.02,0.05c0.04,0.15,0.08,0.32,0.11,0.49c0.02,0.09,0.03,0.19,0.05,0.28
						C111.24,306.22,111.27,306.57,111.28,306.94z"/>
					<path style="fill:#FFD4A6;" d="M110.27,311.58c-0.07,0.11-0.15,0.22-0.23,0.32c-0.04,0.05-0.08,0.1-0.13,0.15
						c-0.07,0.1-0.15,0.19-0.24,0.27c-0.63,0.63-1.34,0.93-1.89,1.07c-0.07,0.01-0.13,0.03-0.19,0.04
						c-0.14,0.03-0.26,0.05-0.37,0.06c-0.28,0.03-0.46,0.02-0.46,0.02v-7.44l1.59,2.5L110.27,311.58z"/>
					<path style="fill:#2C7184;" d="M106.76,306.07v7.44c0,0-0.01,0-0.02,0.01c-0.01,0-0.03,0-0.05,0.01
						c-0.03,0.01-0.07,0.02-0.11,0.04c-0.03,0.01-0.07,0.02-0.11,0.03c-0.11,0.03-0.25,0.07-0.43,0.12
						c-1.19,0.35-3.77,1.08-7.02,1.84c-0.42,0.1-0.86,0.2-1.31,0.3c-0.32,0.07-0.65,0.14-0.98,0.21c-0.35,0.08-0.71,0.15-1.07,0.22
						c-0.29,0.06-0.58,0.12-0.87,0.18c-0.44,0.08-0.89,0.17-1.34,0.25l-3.99-6.07l-2.02-3.07c0.74,0.07,1.51,0.12,2.3,0.14
						c1.13,0.03,2.29,0.02,3.46-0.03c0.23-0.01,0.45-0.02,0.68-0.03c2.74-0.15,5.44-0.48,7.66-0.82c2.7-0.4,4.68-0.81,5.13-0.91
						L106.76,306.07z"/>
					
						<linearGradient id="SVGID_00000034074215036115023350000012627049826965341836_" gradientUnits="userSpaceOnUse" x1="90.8111" y1="302.6642" x2="89.6943" y2="300.7455">
						<stop  offset="0" style="stop-color:#FFCB6F"/>
						<stop  offset="1" style="stop-color:#F4EF5F"/>
					</linearGradient>
					<path style="fill:url(#SVGID_00000034074215036115023350000012627049826965341836_);" d="M90.35,301.45l-0.06,0.68l-0.28-0.42
						v-0.01c-0.04-0.13-0.08-0.27-0.12-0.41C90.04,301.34,90.2,301.39,90.35,301.45z"/>
					<path style="fill:#FFD4A6;" d="M105.967,255.712c-0.2,1.52-0.522,2.717-1.026,3.411c-2.888,3.952-7.638,0.827-7.125,6.413
						l-0.038,4.664l-2.812,5.225l-6.251-6.488v-5.387c0,0-7.838-0.19-8.075-7.989c0,0-5.938-0.798-5.386-7.125
						c0.285-3.268,1.833-3.714,3.268-3.372c1.349,0.314,2.593,1.311,2.593,1.311s3.201,0.95,4.351-1.587
						c1.15-2.527-3.876-9.5,1.425-9.738c2.194-0.095,6.118,0.314,10.232,0.304C97.455,238.992,99.136,252.083,105.967,255.712z"/>
					<path style="fill:#33336D;" d="M95.992,320.597L105,334.364l-2.261,1.491c-3.962,13.082-8.723,87.455-8.723,87.455H82.73
						c-5.89-46.607,0.372-98.898,0.372-98.898L95.992,320.597z"/>
					<path style="fill:#1D5866;" d="M95.99,320.6l-7.72,2.28l-5.17,1.53l-0.37-5.84l-0.02-0.6c0.76-0.02,1.53-0.06,2.31-0.12
						c0.39-0.03,0.79-0.06,1.18-0.1c0.39-0.03,0.79-0.07,1.19-0.12c0.47-0.05,0.94-0.11,1.41-0.17c1.56-0.2,3.13-0.46,4.65-0.74
						L95.99,320.6z"/>
					<path style="fill:#302C3F;" d="M94.016,423.311l0.238,5.7h-27.55c0.788-8.151,16.026-5.7,16.026-5.7H94.016z"/>
					<path style="fill:#2C7184;" d="M93.45,316.72c-1.52,0.28-3.09,0.54-4.65,0.74c-0.47,0.06-0.94,0.12-1.41,0.17
						c-0.4,0.05-0.79,0.09-1.19,0.12c-0.39,0.04-0.79,0.07-1.18,0.1c-0.78,0.06-1.55,0.1-2.31,0.12c-5.02,0.13-9.37-0.61-11.26-3.12
						c-1.34-1.77-2.27-4.64-2.9-8.06c-1.65-9.03-1.2-21.92-0.45-28.63l10.73,16.31c-0.14,2.16-0.06,4.29,0.27,6.17
						c0.25,1.44,0.65,2.72,1.22,3.76c1.05,1.92,3.79,2.84,7.12,3.18l2.02,3.07L93.45,316.72z"/>
					
						<linearGradient id="SVGID_00000132052931561639673120000007686837057590131390_" gradientUnits="userSpaceOnUse" x1="90.4703" y1="302.4201" x2="89.3176" y2="300.4397">
						<stop  offset="0" style="stop-color:#FFCB6F"/>
						<stop  offset="1" style="stop-color:#F4EF5F"/>
					</linearGradient>
					<path style="fill:url(#SVGID_00000132052931561639673120000007686837057590131390_);" d="M90.01,301.7l-0.31-0.47
						c0.06,0.01,0.13,0.04,0.19,0.06C89.93,301.43,89.97,301.57,90.01,301.7z"/>
					<path style="fill:#1D5866;" d="M87.44,307.58c-3.33-0.34-6.07-1.26-7.12-3.18c-0.57-1.04-0.97-2.32-1.22-3.76
						c-0.33-1.88-0.41-4.01-0.27-6.17l3.79,5.77L87.44,307.58z"/>
					
						<linearGradient id="SVGID_00000051344776917732459990000001802072678280349339_" gradientUnits="userSpaceOnUse" x1="89.695" y1="310.0959" x2="49.515" y2="241.0641">
						<stop  offset="0" style="stop-color:#FFCB6F"/>
						<stop  offset="1" style="stop-color:#F4EF5F"/>
					</linearGradient>
					<path style="fill:url(#SVGID_00000051344776917732459990000001802072678280349339_);" d="M93.88,307.66
						c-0.23,0.01-0.45,0.02-0.68,0.03c-1.17,0.05-2.33,0.06-3.46,0.03c-0.79-0.02-1.56-0.07-2.3-0.14l-4.82-7.34l-3.79-5.77
						L68.1,278.16L45.33,243.5c0.59,0.84,2.21,2.82,4.27,2.69c2.52-0.13,0.85-5.17,0.73-5.55l0.36,0.55l0.03,0.04l20.16,31.04
						l9.39,14.44l9.43,14.52l0.31,0.47v0.01l0.28,0.42L93.88,307.66z"/>
					
						<linearGradient id="SVGID_00000008128839927921441890000008583543672347518350_" gradientUnits="userSpaceOnUse" x1="56.7526" y1="238.3164" x2="56.7222" y2="238.2641">
						<stop  offset="0" style="stop-color:#FFCB6F"/>
						<stop  offset="1" style="stop-color:#F4EF5F"/>
					</linearGradient>
					<path style="fill:url(#SVGID_00000008128839927921441890000008583543672347518350_);" d="M56.73,238.28
						c-0.01-0.01-0.01-0.01-0.01-0.02l0.01,0.01V238.28z"/>
					
						<linearGradient id="SVGID_00000117637830877758134400000016000317939617666442_" gradientUnits="userSpaceOnUse" x1="102.7393" y1="308.2178" x2="60.8807" y2="236.3021">
						<stop  offset="0" style="stop-color:#FFCB6F"/>
						<stop  offset="1" style="stop-color:#F4EF5F"/>
					</linearGradient>
					<path style="fill:url(#SVGID_00000117637830877758134400000016000317939617666442_);" d="M106.67,305.93
						c-0.45,0.1-2.43,0.51-5.13,0.91l-10.19-15.61l-3.96-6.05l-2.83-4.33l-6.89-10.55l-20.72-31.71c0.11,0.16,0.27,0.37,0.47,0.59
						c0.1,0.12,0.2,0.23,0.31,0.34c0.11,0.12,0.22,0.24,0.35,0.35c0.06,0.06,0.12,0.11,0.19,0.17c0.13,0.11,0.27,0.22,0.42,0.32
						c0.23,0.16,0.47,0.3,0.73,0.41c0.06,0.03,0.13,0.06,0.2,0.08c0.08,0.04,0.17,0.07,0.26,0.09c0.12,0.04,0.24,0.06,0.36,0.08
						c0.27,0.04,0.54,0.04,0.82,0c2.5-0.35,1.61-4.29,1.61-4.29l20.79,32.7l8.68,13.64v0.01l12.05,18.94l0.03,0.04L106.67,305.93z"
						/>
					<path style="fill:#FFD4A6;" d="M61.06,241.02c-0.28,0.04-0.55,0.04-0.82,0c-0.12-0.02-0.24-0.05-0.36-0.08
						c-0.09-0.02-0.18-0.05-0.26-0.09c-0.07-0.02-0.14-0.05-0.2-0.08c-0.26-0.11-0.5-0.25-0.73-0.41c-0.15-0.1-0.29-0.21-0.42-0.32
						c-0.07-0.06-0.13-0.11-0.19-0.17c-0.13-0.11-0.24-0.23-0.35-0.35c-0.11-0.11-0.21-0.22-0.31-0.34
						c-0.2-0.22-0.36-0.43-0.47-0.59l-0.12-0.17l-0.09-0.13h-0.01c0,0.01,0.01,0.01,0.01,0.03c0.04,0.08,0.1,0.2,0.15,0.34
						c0.02,0.04,0.04,0.09,0.06,0.14c0.02,0.05,0.04,0.1,0.06,0.16s0.04,0.12,0.06,0.18c0.01,0.03,0.02,0.06,0.03,0.08
						c0.05,0.13,0.09,0.28,0.13,0.43c0.06,0.19,0.11,0.4,0.14,0.61c0.02,0.11,0.04,0.22,0.05,0.33c0.13,1.19-0.16,2.45-1.82,2.82
						c-0.87,0.19-1.64,0.1-2.31-0.15c-0.14-0.05-0.28-0.11-0.41-0.17s-0.26-0.13-0.38-0.2c-0.24-0.15-0.45-0.3-0.65-0.47
						c-0.21-0.17-0.4-0.35-0.57-0.53c-0.08-0.08-0.16-0.17-0.23-0.25c-0.13-0.15-0.24-0.29-0.33-0.41l-0.03-0.04l-0.36-0.55
						c0.12,0.38,1.79,5.42-0.73,5.55c-2.06,0.13-3.68-1.85-4.27-2.69c-0.15-0.21-0.24-0.36-0.24-0.36l0.45-5.47
						c7.53-2.53,7.41-7.15,7.41-7.15l9.72,6.21C62.67,236.73,63.56,240.67,61.06,241.02z"/>
					<path style="fill:#1E242B;" d="M52.947,230.518c0,0,0.124,4.627-7.41,7.154l0.922-11.305L52.947,230.518z"/>
				</g>
			</g>
			<path style="fill:#EDBF94;" d="M98.832,262.243c2.04-0.797-10.12,1.309-10.12,1.309v1.267c0,0,7.348,2.912,9.087,2.812
				C97.798,267.631,97.32,262.834,98.832,262.243z"/>
			<path style="fill:#EDBF94;" d="M106.062,254.895c-0.028,0.285-0.057,0.551-0.095,0.817c-6.831-3.629-8.512-16.72-8.844-20.359
				h0.332c2.584-0.019,5.215-0.199,7.524-0.788C105.245,236.579,106.698,248.159,106.062,254.895z"/>
			<path style="fill:none;" d="M97.046,234.413l0.408,0.94h-0.332C97.065,234.755,97.046,234.413,97.046,234.413z"/>
			<path style="fill:none;" d="M106.546,255.997c-0.2-0.086-0.389-0.18-0.579-0.285c0.038-0.266,0.067-0.532,0.095-0.817
				L106.546,255.997z"/>
			<line style="fill:none;" x1="99.02" y1="315.56" x2="93.88" y2="307.66"/>
			
				<linearGradient id="SVGID_00000052810524924326325930000009200007701514371768_" gradientUnits="userSpaceOnUse" x1="124.2552" y1="339.1576" x2="108.5865" y2="312.2378">
				<stop  offset="0" style="stop-color:#FFCB6F"/>
				<stop  offset="1" style="stop-color:#F4EF5F"/>
			</linearGradient>
			<path style="fill:url(#SVGID_00000052810524924326325930000009200007701514371768_);" d="M126.17,336.59
				c-0.96,1.28-2,2.36-3.07,3.24l-2.59-3.97l-10.44-15.96l-2.59-3.97l-1.44-2.21c0.18-0.05,0.32-0.09,0.43-0.12
				c0.04-0.01,0.08-0.02,0.11-0.03c0.04-0.02,0.08-0.03,0.11-0.04c0.02-0.01,0.04-0.01,0.05-0.01c0.01-0.01,0.02-0.01,0.02-0.01
				s0.18,0.01,0.46-0.02c0.11-0.01,0.23-0.03,0.37-0.06c0.06-0.01,0.12-0.03,0.19-0.04c0.55-0.14,1.26-0.44,1.89-1.07
				c0.09-0.08,0.17-0.17,0.24-0.27c0.05-0.05,0.09-0.1,0.13-0.15c0.08-0.1,0.16-0.21,0.23-0.32l1.39,2.18l14.05,22.1L126.17,336.59z
				"/>
			
				<linearGradient id="SVGID_00000096024437170619846770000005007851612954338708_" gradientUnits="userSpaceOnUse" x1="50.4367" y1="241.47" x2="119.9367" y2="340.4699">
				<stop  offset="0" style="stop-color:#F4EF5F"/>
				<stop  offset="1" style="stop-color:#FFCB6F"/>
			</linearGradient>
			<path style="fill:url(#SVGID_00000096024437170619846770000005007851612954338708_);" d="M123.1,339.83
				c-2.05,1.73-4.2,2.79-6.08,3.44l-4.77-7.34c0-0.02,0-0.05-0.01-0.07h-0.04l-5.99-9.22l-3.92-6.04l-3.27-5.04
				c3.25-0.76,5.83-1.49,7.02-1.84l1.44,2.21l2.59,3.97l10.44,15.96L123.1,339.83z"/>
			
				<linearGradient id="SVGID_00000010309722105290185620000017398362709456283282_" gradientUnits="userSpaceOnUse" x1="52.2636" y1="240.1463" x2="121.7636" y2="339.1463">
				<stop  offset="0" style="stop-color:#F4EF5F"/>
				<stop  offset="1" style="stop-color:#FFCB6F"/>
			</linearGradient>
			<path style="fill:url(#SVGID_00000010309722105290185620000017398362709456283282_);" d="M101.54,306.84
				c-2.22,0.34-4.92,0.67-7.66,0.82l-3.59-5.53l0.06-0.68c-0.15-0.06-0.31-0.11-0.46-0.16c-0.06-0.02-0.13-0.05-0.19-0.06
				l-9.43-14.52l-9.39-14.44l-20.16-31.04c0.09,0.12,0.2,0.26,0.33,0.41c0.06,0.08,0.14,0.16,0.23,0.25
				c0.17,0.18,0.36,0.36,0.57,0.53c0.2,0.17,0.41,0.32,0.65,0.47c0.12,0.07,0.25,0.14,0.38,0.2s0.27,0.12,0.41,0.17
				c0.67,0.25,1.44,0.34,2.31,0.15c1.66-0.37,1.95-1.63,1.82-2.82c-0.01-0.11-0.03-0.22-0.05-0.33c-0.03-0.21-0.08-0.42-0.14-0.61
				c-0.04-0.15-0.08-0.3-0.13-0.43c-0.01-0.02-0.02-0.05-0.03-0.08c-0.02-0.06-0.04-0.12-0.06-0.18s-0.04-0.11-0.06-0.16
				c-0.02-0.05-0.04-0.1-0.06-0.14c-0.05-0.14-0.11-0.26-0.15-0.34c0-0.02-0.01-0.02-0.01-0.03h0.01l0.09,0.13l0.12,0.17
				l20.72,31.71l6.89,10.55l2.83,4.33l3.96,6.05L101.54,306.84z"/>
			<line style="fill:none;" x1="106.04" y1="313.72" x2="101.54" y2="306.84"/>
			<polyline style="fill:none;" points="56.73,238.29 56.73,238.28 56.73,238.27 56.72,238.26 56.69,238.2 			"/>
		</g>
		<g>
			<path style="fill:#404049;" d="M126.949,209.403c-6.393,0-11.4-7.651-11.4-17.417c0-9.766,5.007-17.417,11.4-17.417
				c6.392,0,11.4,7.651,11.4,17.417c0,1.312-1.063,2.375-2.375,2.375s-2.375-1.063-2.375-2.375c0-7.465-3.505-12.667-6.65-12.667
				c-3.145,0-6.65,5.202-6.65,12.667s3.505,12.667,6.65,12.667c1.312,0,2.375,1.063,2.375,2.375S128.261,209.403,126.949,209.403z"
				/>
		</g>
		<g>
			<path style="fill:#404049;" d="M152.204,210.353c-6.392,0-11.4-7.651-11.4-17.417c0-9.766,5.007-17.417,11.4-17.417
				s11.4,7.651,11.4,17.417c0,1.312-1.063,2.375-2.375,2.375s-2.375-1.063-2.375-2.375c0-7.465-3.505-12.667-6.65-12.667
				s-6.65,5.202-6.65,12.667c0,7.465,3.505,12.667,6.65,12.667c1.312,0,2.375,1.063,2.375,2.375S153.516,210.353,152.204,210.353z"
				/>
		</g>
		<g>
			<path style="fill:#404049;" d="M177.148,210.353c-6.392,0-11.4-7.651-11.4-17.417c0-9.766,5.007-17.417,11.4-17.417
				s11.4,7.651,11.4,17.417c0,1.312-1.063,2.375-2.375,2.375c-1.312,0-2.375-1.063-2.375-2.375c0-7.465-3.505-12.667-6.65-12.667
				s-6.65,5.202-6.65,12.667c0,7.465,3.505,12.667,6.65,12.667c1.312,0,2.375,1.063,2.375,2.375S178.46,210.353,177.148,210.353z"/>
		</g>
		<g>
			<path style="fill:#404049;" d="M336.503,208.928c-6.392,0-11.4-7.651-11.4-17.417c0-9.766,5.008-17.417,11.4-17.417
				s11.4,7.651,11.4,17.417c0,1.312-1.063,2.375-2.375,2.375c-1.312,0-2.375-1.063-2.375-2.375c0-7.465-3.505-12.667-6.65-12.667
				s-6.65,5.202-6.65,12.667c0,7.465,3.505,12.667,6.65,12.667c1.312,0,2.375,1.063,2.375,2.375
				C338.878,207.864,337.815,208.928,336.503,208.928z"/>
		</g>
		<g>
			<path style="fill:#404049;" d="M361.758,209.878c-6.392,0-11.399-7.651-11.399-17.417c0-9.766,5.007-17.417,11.399-17.417
				s11.4,7.651,11.4,17.417c0,1.312-1.063,2.375-2.375,2.375c-1.312,0-2.375-1.063-2.375-2.375c0-7.465-3.505-12.667-6.65-12.667
				s-6.649,5.202-6.649,12.667s3.504,12.667,6.649,12.667c1.312,0,2.375,1.063,2.375,2.375
				C364.133,208.814,363.07,209.878,361.758,209.878z"/>
		</g>
		<g>
			<path style="fill:#404049;" d="M386.702,209.878c-6.392,0-11.399-7.651-11.399-17.417c0-9.766,5.007-17.417,11.399-17.417
				s11.4,7.651,11.4,17.417c0,1.312-1.063,2.375-2.375,2.375c-1.312,0-2.375-1.063-2.375-2.375c0-7.465-3.505-12.667-6.65-12.667
				s-6.649,5.202-6.649,12.667s3.504,12.667,6.649,12.667c1.312,0,2.375,1.063,2.375,2.375
				C389.077,208.814,388.014,209.878,386.702,209.878z"/>
		</g>
		<g>
			
				<linearGradient id="SVGID_00000183223775117905999500000000918599970460187280_" gradientUnits="userSpaceOnUse" x1="75.4905" y1="152.1767" x2="103.1507" y2="152.1767">
				<stop  offset="0" style="stop-color:#FFFFFF"/>
				<stop  offset="1" style="stop-color:#F4F4F4"/>
			</linearGradient>
			<path style="fill:url(#SVGID_00000183223775117905999500000000918599970460187280_);" d="M76.914,172.693
				c-0.73,0-1.351-0.558-1.418-1.298c-0.07-0.784,0.509-1.476,1.293-1.546l23.512-2.099v-34.663c0-0.787,0.638-1.425,1.425-1.425
				c0.787,0,1.425,0.638,1.425,1.425v35.967c0,0.738-0.563,1.354-1.298,1.419l-24.81,2.215
				C76.999,172.691,76.957,172.693,76.914,172.693z"/>
		</g>
		<polygon style="fill:#F4C09A;" points="409.178,277.802 417.412,277.169 417.412,280.811 409.592,278.99 		"/>
		<g id="XMLID_30_">
			<path style="opacity:0.2;" d="M291.154,192.935l2.282,0.001c0,0-5.344,26.245-16.308,39.584h-2.929L291.154,192.935z"/>
			<polygon style="opacity:0.2;" points="247.797,192.223 229.643,228.526 232.014,229.825 251.003,192.935 			"/>
			<g>
				
					<linearGradient id="SVGID_00000030478751511069827540000009207887448213096360_" gradientUnits="userSpaceOnUse" x1="271.5236" y1="233.612" x2="275.934" y2="233.612">
					<stop  offset="0" style="stop-color:#FFCB6F"/>
					<stop  offset="1" style="stop-color:#F4D15F"/>
				</linearGradient>
				<path style="fill:url(#SVGID_00000030478751511069827540000009207887448213096360_);" d="M271.524,232.52h4.41
					c-0.637,0.931-1.255,1.665-1.818,2.185l-0.72-0.609L271.524,232.52z"/>
				<g>
					<g style="opacity:0.2;">
						<path d="M298.022,314.807c0.092,3.823,0.028,7.682-0.166,11.506l-59.328-0.331c0.461-6.733,0.535-11.174,0.535-11.174H298.022
							z"/>
					</g>
					<g>
						<path style="fill:#FFC466;" d="M296.122,312.907c0.092,3.823,0.028,7.682-0.166,11.506l-59.328-0.331
							c0.461-6.733,0.535-11.174,0.535-11.174H296.122z"/>
					</g>
				</g>
				<g>
					<g style="opacity:0.2;">
						<path d="M238.528,325.981l59.328,0.331c-1.329,26.441-8.645,51.081-8.645,51.081l-61.118-0.072
							C234.985,362.924,237.568,339.707,238.528,325.981z"/>
					</g>
					<g>
						
							<linearGradient id="SVGID_00000145037116958177855420000008737551394499869095_" gradientUnits="userSpaceOnUse" x1="226.1926" y1="349.7874" x2="295.9561" y2="349.7874">
							<stop  offset="0" style="stop-color:#FFCB6F"/>
							<stop  offset="1" style="stop-color:#F4D15F"/>
						</linearGradient>
						<path style="fill:url(#SVGID_00000145037116958177855420000008737551394499869095_);" d="M236.628,324.081l59.328,0.331
							c-1.329,26.441-8.645,51.081-8.645,51.081l-61.118-0.072C233.085,361.024,235.668,337.807,236.628,324.081z"/>
					</g>
				</g>
				
					<linearGradient id="SVGID_00000176020406879810246320000008829400990443825825_" gradientUnits="userSpaceOnUse" x1="221.5054" y1="197.766" x2="293.8671" y2="197.766">
					<stop  offset="0" style="stop-color:#FFCB6F"/>
					<stop  offset="1" style="stop-color:#F4D15F"/>
				</linearGradient>
				<path style="fill:url(#SVGID_00000176020406879810246320000008829400990443825825_);" d="M277.715,192.935
					c0.84-5.498,1.246-10.977,0.84-15.911c0,0-4.041,14.174-16.47,15.911h-13l-1.504-11.989c0,0-3.303-0.125-4.65,5.023
					c-1.301,4.978-16.331,38.403-17.337,40.632l-2.722-1.298l-1.366-0.654c2.768-4.11,19.681-51.108,22.652-57.206
					c2.962-6.098,16.156-4.128,16.156-4.128l0.655,2.435l3.755,5.516l4.152-5.516l0.637-2.301h0.009c0,0,20.668-1.809,23.814,7.817
					c3.294,10.064-9.485,49.882-17.402,61.253h-4.41l-3.192-2.695l-0.95-0.797C267.381,229.028,274.938,210.896,277.715,192.935z"/>
				<g>
					<g style="opacity:0.2;">
						<path d="M288.371,234.42c0.12,3.367,0.037,6.769-0.203,10.136l-19.376-0.081v-0.833c0.849,0,2.731-1.074,6.357-7.485
							l0.148-0.161l0.72,0.609c0.563-0.519,1.181-1.254,1.818-2.185H288.371z"/>
					</g>
					<g>
						<path style="fill:#78C7EA;" d="M286.471,232.52c0.12,3.367,0.037,6.769-0.203,10.136l-19.376-0.081v-0.833
							c0.849,0,2.731-1.074,6.357-7.485l0.148-0.161l0.72,0.609c0.563-0.519,1.181-1.254,1.818-2.185H286.471z"/>
					</g>
				</g>
				<g>
					<g style="opacity:0.2;">
						<path d="M268.792,244.475l19.376,0.081c-1.652,23.28-10.721,44.975-10.721,44.975l-75.844-0.063
							c8.553-12.679,11.755-33.129,12.945-45.208L268.792,244.475z"/>
					</g>
					<g>
						<path style="fill:#94D9FF;" d="M266.892,242.575l19.376,0.081c-1.652,23.28-10.721,44.975-10.721,44.975l-75.844-0.063
							c8.553-12.679,11.755-33.129,12.945-45.208L266.892,242.575z"/>
					</g>
				</g>
				
					<linearGradient id="SVGID_00000000935519459604617590000012348549395419384706_" gradientUnits="userSpaceOnUse" x1="262.0847" y1="184.9795" x2="278.7131" y2="184.9795">
					<stop  offset="0" style="stop-color:#FF9F6F"/>
					<stop  offset="1" style="stop-color:#F4D15F"/>
				</linearGradient>
				<path style="fill:url(#SVGID_00000000935519459604617590000012348549395419384706_);" d="M278.554,177.024
					c0.406,4.934,0,10.413-0.84,15.911h-15.63C274.513,191.198,278.554,177.024,278.554,177.024z"/>
				<path style="fill:#FFDEC0;" d="M276.275,138.397c2.261,4.593-1.781,7.109-1.781,7.109l-2.113,7.629l-0.009,0.009
					c-5.665,5.005-13.49,4.808-13.49,4.808s-7.695,0.707-11.487-2.552c-1.07-0.922-1.652-3.465-1.938-6.644
					c10.297-5.462,10.694-19.877,10.694-19.877l8.987,0.322l1.439,11.13h3.156c0,0,2.196-3.34,4.272-3.564
					C274.827,136.678,275.639,137.09,276.275,138.397z"/>
				<path style="fill:#162B2B;" d="M270.795,121.609c5.896-0.197,3.211,15.159,3.211,15.159c-2.076,0.224-4.272,3.564-4.272,3.564
					h-3.156l-1.439-11.13l-8.987-0.322l-10.242-0.376c0,0-9.67-5.193-5.988-11.962s7.557,3.044,11.478,2.767
					c3.921-0.278,4.032-5.265,9.891-2.928C267.15,118.717,264.899,121.806,270.795,121.609z"/>
				<path style="fill:#FFDEC0;" d="M273.397,234.096l-0.148,0.161c-3.626,6.411-5.508,7.485-6.357,7.485
					c-0.443,0-0.609-0.278-0.609-0.278s-2.934-1.11-3.488-3.564c-0.554-2.453,2.464-4.441,2.464-4.441l-3.894-0.134
					c-0.009-0.269,0.157-0.537,0.461-0.806h9.697L273.397,234.096z"/>
				<path style="fill:#F4C09A;" d="M272.372,153.144l-0.923,3.322c-3.691,4.62-11.137,6.85-11.137,6.85l-1.43-5.363
					C258.883,157.953,266.707,158.15,272.372,153.144z"/>
				<path style="fill:#FFDEC0;" d="M271.524,232.52h-9.697c1.55-1.388,6.505-2.695,6.505-2.695L271.524,232.52z"/>
				<path style="fill:#FFDEC0;" d="M271.45,156.466l-1.938,6.984l-0.637,2.301l-4.152,5.516l-3.755-5.516l-0.655-2.435
					C260.313,163.316,267.759,161.086,271.45,156.466z"/>
				<path style="fill:#78C7EA;" d="M266.892,241.742v0.833l-54.244-0.215c0.581-5.927,0.674-9.84,0.674-9.84h4.641
					c-0.323,0.895-0.406,1.665-0.055,2.185c1.513,2.247,9.504,2.167,10.14,0.582c0.461-1.146,0.877-2.256,1.061-2.767h32.718
					c-0.305,0.269-0.471,0.537-0.461,0.806l3.894,0.134c0,0-3.017,1.988-2.464,4.441c0.554,2.453,3.488,3.564,3.488,3.564
					S266.449,241.742,266.892,241.742z"/>
				<path style="fill:#F4C09A;" d="M245.91,128.504l10.242,0.376c0,0-0.397,14.416-10.694,19.877
					C244.729,140.681,245.91,128.504,245.91,128.504z"/>
				
					<linearGradient id="SVGID_00000169543503471721065360000017931674183703226544_" gradientUnits="userSpaceOnUse" x1="225.5929" y1="204.9866" x2="249.0842" y2="204.9866">
					<stop  offset="0" style="stop-color:#FF9F6F"/>
					<stop  offset="1" style="stop-color:#F4D15F"/>
				</linearGradient>
				<path style="fill:url(#SVGID_00000169543503471721065360000017931674183703226544_);" d="M247.58,180.946l1.504,11.989
					l-18.389,36.093l-0.48-0.224c-0.185-0.09-0.369-0.179-0.572-0.278l-4.051-1.925c1.006-2.229,16.036-35.654,17.337-40.632
					C244.277,180.821,247.58,180.946,247.58,180.946z"/>
				<path style="fill:#FFDEC0;" d="M225.593,226.601l4.051,1.925c0.203,0.098,0.388,0.188,0.572,0.278
					c5.232,2.623,2.814,3.546,2.814,3.546l-3.801-0.134c0,0-0.037,0.107-0.12,0.304h-11.146c1.08-2.973,4.909-7.217,4.909-7.217
					L225.593,226.601z"/>
				<path style="fill:#FFDEC0;" d="M217.962,232.52h11.146c-0.185,0.51-0.6,1.621-1.061,2.767c-0.637,1.585-8.627,1.665-10.14-0.582
					C217.556,234.185,217.639,233.415,217.962,232.52z"/>
			</g>
		</g>
		<g>
			<g>
				<path style="fill:#FC5454;" d="M148.596,293.918c11.953-11.432,24.42-22.291,37.384-32.562c1.437-1.138-0.592-3.143-2.015-2.015
					c-12.964,10.272-25.431,21.131-37.384,32.562C145.252,293.173,147.27,295.186,148.596,293.918L148.596,293.918z"/>
			</g>
			<g>
				<path style="fill:#FC5454;" d="M151.338,261.277c8.983,11.798,17.966,23.595,26.949,35.393c1.097,1.44,3.573,0.022,2.461-1.438
					c-8.983-11.798-17.966-23.595-26.949-35.393C152.703,258.398,150.226,259.817,151.338,261.277L151.338,261.277z"/>
			</g>
		</g>
	</g>
	<text transform="matrix(0.8721 0 0 1 52.5523 77.3333)" style="fill:#FFFFFF; font-family:'OpenSans-Extrabold'; font-size:28px;">PLANNING SCHEDULE CONCEPT </text>
	<line style="fill:none;stroke:#FFFFFF;stroke-miterlimit:10;" x1="32.602" y1="86.333" x2="467.398" y2="86.333"/>
</g>
</svg>
