<svg xmlns="http://www.w3.org/2000/svg" viewBox="0 0 500 500"><g id="freepik--Dog--inject-96"><path d="M268.39,358.33c3.7,5.31,12.29,35.36,14.79,36.87s12.55,5.52,14.3,7.77,3.51,5.77,1.76,6.77-31.1.26-36.12,0-26.8-14.79-29.34-18.56-33.86-33.1-31.1-40.63S253.34,336.76,268.39,358.33Z" style="fill:#303846"></path><path d="M268.39,358.33c3.7,5.31,12.29,35.36,14.79,36.87s12.55,5.52,14.3,7.77,3.51,5.77,1.76,6.77-31.1.26-36.12,0-26.8-14.79-29.34-18.56-33.86-33.1-31.1-40.63S253.34,336.76,268.39,358.33Z" style="opacity:0.1"></path><path d="M277.06,380.56c-7.09,3.42-14.41,7-14.41,7l-15.34,14.08c-6.32-4.12-12.27-8.6-13.53-10.46-2.54-3.77-33.87-33.11-31.1-40.64s50.66-13.79,65.7,7.78C270.42,361.24,273.91,371.57,277.06,380.56Z" style="opacity:0.1"></path><path d="M293,405.72a10,10,0,0,0-2.24-1.42,19.51,19.51,0,0,0-2.6-.91.09.09,0,1,0,0,.17,11.49,11.49,0,0,1,4.22,2.86,15.48,15.48,0,0,1,3,3.76c.08.15.3,0,.27-.1A8.1,8.1,0,0,0,293,405.72Z" style="fill:#263238"></path><path d="M297.38,404.19a10.33,10.33,0,0,0-2.24-1.41,19.51,19.51,0,0,0-2.6-.91.09.09,0,1,0-.05.17,11.39,11.39,0,0,1,4.21,2.85,15.39,15.39,0,0,1,3,3.77c.08.15.3,0,.27-.11A8.1,8.1,0,0,0,297.38,404.19Z" style="fill:#263238"></path><path d="M219.77,374.82c-5.14-5.2-11-9.64-16.29-14.65a49.93,49.93,0,0,1-8.23-9.31c-.07-.11-.24,0-.17.1a75.11,75.11,0,0,0,6.27,8.69A93,93,0,0,0,209,367.5c5.23,4.88,10.86,9.4,15.52,14.86a45.43,45.43,0,0,1,6.74,9.86c0,.11.23,0,.19-.08C229,385.46,224.75,379.85,219.77,374.82Z" style="fill:#263238"></path><path d="M244.47,399.57c-3.56-1.85-6.08-4.85-8.68-7.82-1.26-1.45-2.48-2.95-3.79-4.35-1.67-1.77-3.39-3.46-4.91-5.36-.08-.1-.24,0-.16.11,2.8,3.5,4.93,7.47,7.95,10.81a25.86,25.86,0,0,0,9.5,6.78A.1.1,0,0,0,244.47,399.57Z" style="fill:#263238"></path><path d="M187.19,310.31c4.51,10.93-12,41.12-17.81,46.39S145.31,375,144.05,377.52s.58,18.66,2.09,20.41,7.43,3.08,9.06,4.62c1.41,1.34,3.81,4.41,1.93,6.28s-25.86,1-28.12,0-15.81-33.57-15.81-39.59-5.42-59.45,13.55-67.73S180.67,294.51,187.19,310.31Z" style="fill:#303846"></path><path d="M187.19,310.31c4.51,10.93-12,41.12-17.81,46.39S145.31,375,144.05,377.52s.58,18.66,2.09,20.41,7.43,3.08,9.06,4.62c1.41,1.34,3.81,4.41,1.93,6.28s-25.86,1-28.12,0-15.81-33.57-15.81-39.59-5.42-59.45,13.55-67.73S180.67,294.51,187.19,310.31Z" style="opacity:0.1"></path><path d="M180.46,338.34a78.41,78.41,0,0,1-4,7.33c-.71,1.15-1.44,2.27-2.2,3.39s-1.7,2.22-2.59,3.32a63.75,63.75,0,0,1-6.08,6.11c-1.11,1.06-2.25,2.09-3.33,3.17s-2.29,2.41-3.54,3.47c-.1.08.05.21.14.13,1.32-1.12,2.83-2.07,4.23-3.08s2.59-1.94,3.87-2.93a37.06,37.06,0,0,0,6.37-5.88c3.52-4.43,5.27-9.79,7.26-15C180.66,338.32,180.51,338.26,180.46,338.34Z" style="fill:#263238"></path><path d="M198.07,308.19c-7.54,9.42-12.85,20.47-16.54,31.91-.51,1.6-1,3.21-1.48,4.83s-.8,3.46-1.39,5.13c0,.12.15.17.19.05.5-1.49,1.22-2.89,1.83-4.33s1.13-2.76,1.69-4.14q1.71-4.15,3.4-8.32c2.24-5.54,4.58-11.06,7.3-16.39a87.2,87.2,0,0,1,5.17-8.61C198.31,308.22,198.14,308.09,198.07,308.19Z" style="fill:#263238"></path><path d="M150.79,405.72a10,10,0,0,0-2.24-1.42,19.51,19.51,0,0,0-2.6-.91.09.09,0,1,0,0,.17,11.49,11.49,0,0,1,4.22,2.86,15.77,15.77,0,0,1,3,3.76c.07.15.3,0,.26-.1A8,8,0,0,0,150.79,405.72Z" style="fill:#263238"></path><path d="M155.18,404.19a10.33,10.33,0,0,0-2.24-1.41,19.51,19.51,0,0,0-2.6-.91c-.12,0-.16.13-.05.17a11.43,11.43,0,0,1,4.22,2.85,15.58,15.58,0,0,1,3,3.77c.08.15.3,0,.27-.11A8.1,8.1,0,0,0,155.18,404.19Z" style="fill:#263238"></path><path d="M169.38,356.7C163.61,362,145.3,375,144.05,377.53s.58,18.65,2.09,20.4,7.44,3.08,9.06,4.63c1.08,1,2.74,3.06,2.61,4.81-5.15-.78-10.33-1.93-12.11-3.56-8.42-7.71-18-15.27-19.56-15.27-1,0-4,.13-6.73.27-3.32-8.36-6.21-16.8-6.21-19.56,0-6-5.42-59.45,13.55-67.73s53.92-7,60.44,8.79C191.71,321.24,175.15,351.42,169.38,356.7Z" style="opacity:0.1"></path><path d="M290.54,296s-24.18-62.68-34.93-67.88-24.17,63.79-17.73,73.95,32.84,16.24,34.76,15.87S291.31,304.53,290.54,296Z" style="fill:#303846"></path><g style="opacity:0.1"><path d="M290.54,296s-24.18-62.68-34.93-67.88-24.17,63.79-17.73,73.95,32.84,16.24,34.76,15.87S291.31,304.53,290.54,296Z"></path></g><path d="M272.64,318c-1.91.36-28.31-5.71-34.76-15.87-2.71-4.28-1.9-19,.75-34.18,7.09-.42,26.42-1.55,27.68-1,.93.43,11.16,9.39,19.15,16.48,3.09,7.46,5.08,12.6,5.08,12.6C291.32,304.53,274.56,317.59,272.64,318Z" style="opacity:0.1"></path><path d="M128.21,254.93c2.29-3.15-2.65-8.59-8.54-8.83s-17.78,10.63-16.41,12.31S123.7,261.15,128.21,254.93Z" style="fill:#303846"></path><path d="M271.89,373.18C266.54,372.38,245,406,234,410.07s-74.62-.78-84.25-7.16-30.76-35.2-36.41-43.41S85.76,338,82,326.22s4.44-44.93,10.76-54.06,27.91-23.88,42.14-20.27,60,40,69.91,35.3c9.52-4.52,38.12-22.75,56.45-15.15s38.53,30.83,39.24,44.79-3.35,24-2.22,24.93c1.36,1.15,24.2,9.64,27.52,11.22,2.8,1.32-5.43,14.72-16.36,19.36C300.49,376.16,278.6,374.19,271.89,373.18Z" style="fill:#303846"></path><path d="M124.36,252.09a41,41,0,0,0-9.14,2.54,42.54,42.54,0,0,0-4.14,2.13c-1.44.84-2.73,1.87-4.12,2.76-.11.07,0,.24.1.17a39.09,39.09,0,0,1,4.21-2.07q2.19-1,4.43-1.92c2.87-1.17,5.74-2.54,8.71-3.45C124.51,252.22,124.46,252.07,124.36,252.09Z" style="fill:#263238"></path><path d="M82,326.22C85.76,338,107.65,351.3,113.3,359.5s26.77,37,36.4,43.41,73.2,11.22,84.25,7.16,32.59-37.68,37.94-36.89c6.71,1,28.59,3,37.58-.84,10.93-4.65,19.16-18,16.36-19.36-3.33-1.58-26.17-10.07-27.52-11.22-1.13-1,2.93-11,2.22-24.93-.19-3.84-2.18-8.41-4.89-13.66-3.53-1.57-5.67,3.77-5.11,8.63s2.38,8.84,2.59,16.57-2.56,18.31-7.12,21c-9.7,5.79-21-7.18-26.59-5.59S246.93,351.58,246.8,355s2.37,10.36,2.19,10.84-9.23,11.34-13.2,14.18-11.1,5.07-11.1,5.07a36.66,36.66,0,0,0,9.92-1.64c-.84.43-14.71,9.46-20.48,9.67-5.95.22-43.33,2.28-55.2.07S126.4,349.81,109,344.6s-18.87-23.06-18.62-29.84S107.2,293.42,106.35,283c-.6-7.41-7.83-10-14-10.06C86.06,283,78.4,314.75,82,326.22Z" style="fill:#fff"></path><path d="M82,326.22c1.26,3.73,3.76,6.88,6.36,9.77a108.46,108.46,0,0,0,8.49,8.12l8.91,7.65c1.47,1.3,2.93,2.61,4.32,4a27.52,27.52,0,0,1,3.77,4.5q6.77,9.6,14,18.84A231.6,231.6,0,0,0,143.14,397c1.37,1.4,2.77,2.76,4.26,4a26.43,26.43,0,0,0,2.32,1.78,12.87,12.87,0,0,0,2.61,1.27,72.38,72.38,0,0,0,11.37,2.82c7.7,1.38,15.49,2.29,23.28,3s15.62,1.2,23.44,1.41c3.91.1,7.83.13,11.74,0,2-.06,3.9-.16,5.85-.34a27.88,27.88,0,0,0,5.71-1,17.84,17.84,0,0,0,4.92-3A55.54,55.54,0,0,0,243,403c2.76-2.76,5.36-5.69,7.92-8.65s5.05-6,7.58-9,5.06-6,7.84-8.78a27.75,27.75,0,0,1,2.18-2,8.08,8.08,0,0,1,2.59-1.58,2.16,2.16,0,0,1,.85-.08l.72.1,1.46.19,2.91.31c3.89.38,7.79.64,11.7.74a101.41,101.41,0,0,0,11.7-.31c3.87-.38,7.77-1,11.13-3a34.92,34.92,0,0,0,9-7.32A34.09,34.09,0,0,0,324,359a20,20,0,0,0,1.36-2.54,5.63,5.63,0,0,0,.61-2.63c-.07-.42-.21-.48-.74-.71l-1.35-.56-2.72-1.09-5.47-2.14L304.77,345c-1.82-.73-3.64-1.46-5.44-2.28l-.67-.32a2.16,2.16,0,0,1-.76-.55,1.79,1.79,0,0,1-.2-.94c0-.27,0-.52.06-.77.12-1,.32-2,.5-2.93a96.61,96.61,0,0,0,1.7-11.57q.24-2.91.22-5.83c0-1,0-2-.08-2.92a15.87,15.87,0,0,0-.42-2.82,50.23,50.23,0,0,0-4.44-10.73l.22.21a2.31,2.31,0,0,0-1.78-.1,3.24,3.24,0,0,0-1.4,1.26,9.26,9.26,0,0,0-1.28,3.93,14.68,14.68,0,0,0,.16,4.23c.23,1.42.55,2.84.88,4.26a45.78,45.78,0,0,1,1.17,17.56,37.55,37.55,0,0,1-2.25,8.58,20.11,20.11,0,0,1-2.11,4,10.64,10.64,0,0,1-1.51,1.72,8.1,8.1,0,0,1-1.93,1.28,11.12,11.12,0,0,1-4.42,1.09,15.23,15.23,0,0,1-4.47-.56,41.36,41.36,0,0,1-8.12-3.52c-1.29-.68-2.58-1.37-3.88-2a11,11,0,0,0-4-1.18,3,3,0,0,0-1,.11c-.34.09-.68.2-1,.32a17.84,17.84,0,0,0-1.95.87,25.39,25.39,0,0,0-6.84,5.16,11.19,11.19,0,0,0-2.34,3.47,3.49,3.49,0,0,0-.19.94,7.45,7.45,0,0,0,0,1.05,19.7,19.7,0,0,0,.31,2.12c.27,1.41.64,2.82,1,4.23l.58,2.12a7.71,7.71,0,0,1,.24,1.15v.12a1.27,1.27,0,0,1,0,.18l-.1.17a2.89,2.89,0,0,1-.19.27l-.34.44c-.92,1.15-1.87,2.27-2.82,3.38-1.92,2.21-3.88,4.39-5.93,6.49a44,44,0,0,1-3.24,3A20.92,20.92,0,0,1,233,382.1a57.78,57.78,0,0,1-8.17,3.32l-.12-.73a37.66,37.66,0,0,0,5-.47,30.8,30.8,0,0,0,4.85-1.14l3-1-2.7,1.65a133.56,133.56,0,0,1-13.22,7.34c-1.15.53-2.32,1-3.52,1.45a14.41,14.41,0,0,1-3.76.88l-7.55.33c-10.07.42-20.15.76-30.23.72-5,0-10.09-.13-15.12-.67-.63-.09-1.26-.16-1.89-.27a9.08,9.08,0,0,1-1.88-.47,13.92,13.92,0,0,1-3.32-1.93,43.2,43.2,0,0,1-5.54-5.19c-3.42-3.72-6.53-7.7-9.64-11.66s-6.19-7.94-9.41-11.82a110.44,110.44,0,0,0-10.26-11,40.45,40.45,0,0,0-6-4.57,22.31,22.31,0,0,0-3.35-1.68c-1.15-.44-2.4-.75-3.56-1.26a23.88,23.88,0,0,1-11.5-9.56A33.11,33.11,0,0,1,90.46,320c-.13-1.25-.19-2.52-.2-3.78a15.09,15.09,0,0,1,.07-1.9,7.85,7.85,0,0,1,.49-1.86,35.52,35.52,0,0,1,3.8-6.54c2.87-4.15,6-8.14,8.44-12.52A26.71,26.71,0,0,0,106,286.5a9.93,9.93,0,0,0-6.3-12.1A20.27,20.27,0,0,0,92.3,273l.06,0A63.52,63.52,0,0,0,87,285.61c-1.39,4.38-2.55,8.83-3.52,13.32a120.16,120.16,0,0,0-2.13,13.6,66,66,0,0,0-.28,6.88A26.12,26.12,0,0,0,82,326.22Zm0,0a25.71,25.71,0,0,1-.93-6.81,63.2,63.2,0,0,1,.26-6.88,118.21,118.21,0,0,1,2.1-13.62c1-4.49,2.1-9,3.48-13.33a63.14,63.14,0,0,1,5.31-12.71v0h0a20.67,20.67,0,0,1,7.41,1.42,10.82,10.82,0,0,1,5.65,4.86,10.7,10.7,0,0,1,.77,7.42,26.31,26.31,0,0,1-2.88,7c-2.49,4.4-5.57,8.41-8.42,12.56a34.32,34.32,0,0,0-3.76,6.5,7.53,7.53,0,0,0-.48,1.79,16.46,16.46,0,0,0-.06,1.87c0,1.25.08,2.51.21,3.75a32.65,32.65,0,0,0,4.6,14.19,23.52,23.52,0,0,0,11.36,9.4c1.16.5,2.37.79,3.56,1.26a21.21,21.21,0,0,1,3.41,1.69,39.7,39.7,0,0,1,6,4.6A107.91,107.91,0,0,1,130,362.18c3.23,3.87,6.33,7.85,9.44,11.81s6.24,7.91,9.65,11.6a42.65,42.65,0,0,0,5.48,5.11,13.52,13.52,0,0,0,3.2,1.85,17.25,17.25,0,0,0,3.64.7c5,.53,10,.6,15.06.63,10.07,0,20.14-.34,30.2-.79l7.54-.34a13.77,13.77,0,0,0,3.57-.86,36,36,0,0,0,3.46-1.43,136.63,136.63,0,0,0,13.18-7.36l.28.66a31.41,31.41,0,0,1-5,1.19,39,39,0,0,1-5.07.49l-2.45.06,2.33-.79c5.48-1.87,11-4,14.84-8.55,2-2.08,4-4.25,5.88-6.46.95-1.11,1.89-2.22,2.79-3.36l.33-.42.13-.18,0-.06s0,0,0,.05,0,0,0,0a8.08,8.08,0,0,0-.21-1l-.58-2.1c-.39-1.42-.76-2.84-1-4.29-.14-.73-.26-1.46-.33-2.21a8.79,8.79,0,0,1,0-1.15,3.88,3.88,0,0,1,.24-1.19,11.81,11.81,0,0,1,2.5-3.78,26.43,26.43,0,0,1,7.07-5.36,19.68,19.68,0,0,1,2.05-.91c.36-.13.71-.25,1.08-.35a3.86,3.86,0,0,1,1.21-.15,11.58,11.58,0,0,1,4.36,1.25c1.35.62,2.64,1.31,3.94,2a39.9,39.9,0,0,0,7.94,3.42,11.39,11.39,0,0,0,8.21-.49,7.56,7.56,0,0,0,3.08-2.7,19,19,0,0,0,2-3.76,36.92,36.92,0,0,0,2.17-8.35,44.68,44.68,0,0,0-1.11-17.21c-.32-1.42-.65-2.86-.88-4.32a15.33,15.33,0,0,1-.15-4.49,10.18,10.18,0,0,1,1.43-4.33,4.07,4.07,0,0,1,1.84-1.6,3.18,3.18,0,0,1,2.48.12l.15.06.07.14a51.66,51.66,0,0,1,4.49,11,15.63,15.63,0,0,1,.43,3c0,1,.07,2,.08,3q0,3-.24,5.9a99,99,0,0,1-1.74,11.66c-.19,1-.38,1.92-.5,2.86a5.6,5.6,0,0,0-.05.69,1.28,1.28,0,0,0,.06.49,2.67,2.67,0,0,0,.45.27l.64.31c1.77.81,3.59,1.54,5.4,2.27L316,348.62l5.47,2.15,2.73,1.1,1.36.57a3.4,3.4,0,0,1,.75.41,1.48,1.48,0,0,1,.42.87,6.06,6.06,0,0,1-.67,3,20.7,20.7,0,0,1-1.41,2.63,37.35,37.35,0,0,1-12.76,12.17,20.57,20.57,0,0,1-5.55,2.13,41.54,41.54,0,0,1-5.85.89,98.54,98.54,0,0,1-11.78.28q-5.88-.17-11.74-.76l-2.93-.33-1.46-.19-.73-.1a1.59,1.59,0,0,0-.6.06,7.81,7.81,0,0,0-2.39,1.47c-.74.61-1.45,1.28-2.14,2-2.76,2.76-5.29,5.75-7.83,8.73s-5,6-7.61,8.95-5.18,5.89-8,8.66a56.54,56.54,0,0,1-4.37,4,18.21,18.21,0,0,1-5.07,3.08,28.43,28.43,0,0,1-5.82,1c-2,.18-3.92.27-5.88.33-3.92.11-7.84.07-11.76,0-7.83-.23-15.66-.75-23.46-1.47s-15.59-1.67-23.3-3.07a72.46,72.46,0,0,1-11.41-2.87,13.33,13.33,0,0,1-2.66-1.29,29.07,29.07,0,0,1-2.34-1.8c-1.49-1.28-2.89-2.65-4.26-4.05-5.44-5.66-10.37-11.76-15.21-17.92s-9.49-12.47-14-18.89a27.75,27.75,0,0,0-3.75-4.49c-1.39-1.38-2.84-2.7-4.31-4l-8.89-7.68A108.52,108.52,0,0,1,88.37,336C85.77,333.11,83.28,330,82,326.22Z" style="fill:#dbdbdb"></path><path d="M318.88,361.42c4.14.34,9.95-5.39,9-7.4s-17.45-4.24-18.6-2.8S314.38,361.06,318.88,361.42Z" style="fill:#263238"></path><path d="M289.19,338.43c0-.18-.42.09-.47.28-1.37,4.52-3.69,9.47-8.24,9.59-.14,0-.2.24-.05.27C285.61,349.53,288.63,342.93,289.19,338.43Z" style="fill:#263238"></path><path d="M286.77,332.41c-7-3-12.44,11.28-5.94,14S292.65,334.9,286.77,332.41Z" style="fill:#263238"></path><path d="M287.58,311.38s-8.37-4.23-14.88,6.89" style="fill:#263238"></path><path d="M261,285.94s-41.33-53-53.13-54.81-4.62,68.05,4.5,75.91,36.14,6,37.87,5.1S264.24,293.87,261,285.94Z" style="fill:#303846"></path><path d="M254.4,300.34c3.21-5.81-38.94-61.09-47.37-61.68s.33,59,4.66,64.45,29.4,9.59,31.72,7.09C250.35,302.7,254.4,300.34,254.4,300.34Z" style="fill:#f7a9a0"></path><path d="M266.57,287a8.94,8.94,0,0,0-3.59-3.62c-1.26-.77-2.59-1.39-3.91-2-1.7-2-3.42-4-5.17-5.94-2.23-2.51-4.49-5-6.81-7.44s-4.72-4.78-7-7.28c-.09-.09-.22.05-.14.15,2.16,2.54,4.16,5.23,6.25,7.82s4.07,5,6.16,7.41,4.3,4.91,6.47,7.35c1.89,2.12,3.83,4.13,5,6.77a.26.26,0,0,0,.49-.15c-.48-2.71-2.21-5-3.92-7.06-.14-.18-.29-.35-.44-.53.77.52,1.54,1,2.34,1.48a10.83,10.83,0,0,1,4,3.2A.13.13,0,0,0,266.57,287Z" style="fill:#263238"></path><path d="M214.91,310.26c-3.47-2.17-5.2-6.48-6.35-10.2-.65-2.14-1.26-4.28-1.85-6.44s-1.3-4.45-1.72-6.71c0-.11-.21-.08-.19,0,.35,2.37.53,4.77.93,7.14a64.22,64.22,0,0,0,1.55,7.13c.19.65.41,1.3.65,1.93a8.63,8.63,0,0,0,.32,3.58,9.69,9.69,0,0,0,2.87,4.1.08.08,0,0,0,.11-.11,11.41,11.41,0,0,1-2.25-4.29,17.58,17.58,0,0,1-.46-1.87,15,15,0,0,0,1.55,2.66,10.63,10.63,0,0,0,4.58,3.51A.26.26,0,0,0,214.91,310.26Z" style="fill:#263238"></path><path d="M228.87,370c3.7,5.31,12.29,35.37,14.79,36.87s12.54,5.52,14.3,7.78,3.51,5.77,1.76,6.77-31.1.25-36.12,0-26.8-14.8-29.34-18.56-33.86-33.11-31.1-40.63S213.82,348.4,228.87,370Z" style="fill:#303846"></path><path d="M253.47,417.36a10,10,0,0,0-2.24-1.41,17,17,0,0,0-2.6-.91c-.12,0-.16.13,0,.17a11.43,11.43,0,0,1,4.22,2.85,15.58,15.58,0,0,1,3,3.77c.08.14.3,0,.27-.11A8.1,8.1,0,0,0,253.47,417.36Z" style="fill:#263238"></path><path d="M257.86,415.84a10.37,10.37,0,0,0-2.24-1.42,19.51,19.51,0,0,0-2.6-.91.09.09,0,1,0-.05.17,11.54,11.54,0,0,1,4.21,2.86,15.53,15.53,0,0,1,3,3.76c.08.15.3,0,.27-.1A8.1,8.1,0,0,0,257.86,415.84Z" style="fill:#263238"></path><path d="M180.25,386.46c-5.14-5.2-11-9.64-16.29-14.64a50.41,50.41,0,0,1-8.24-9.32c-.06-.1-.23,0-.16.11a75,75,0,0,0,6.27,8.68,91.52,91.52,0,0,0,7.66,7.85C174.72,384,180.35,388.55,185,394a45.43,45.43,0,0,1,6.74,9.86c.05.11.23,0,.18-.08C189.44,397.11,185.23,391.49,180.25,386.46Z" style="fill:#263238"></path><path d="M239.87,396.15q-1.35-4.38-2.82-8.72c-1.89-5.63-4.15-11.12-5.93-16.78a44.86,44.86,0,0,1-2.11-9.84c0-.13-.22-.13-.21,0a60.4,60.4,0,0,0,3.25,17.09q2.83,8.72,6.22,17.25c1.31,3.29,2.74,6.54,4,9.84.05.12.23.07.19-.05C241.56,402,240.77,399.07,239.87,396.15Z" style="fill:#263238"></path><path d="M231.06,359.19c.1-2,.29-4,.58-5.94a.11.11,0,0,0-.21-.05,23.76,23.76,0,0,0-.56,11.84.14.14,0,0,0,.27,0C231.06,363.06,231,361.14,231.06,359.19Z" style="fill:#263238"></path><path d="M205,411.22c-3.56-1.86-6.08-4.86-8.68-7.83-1.26-1.45-2.48-2.94-3.8-4.34-1.66-1.78-3.38-3.47-4.9-5.37-.08-.1-.24,0-.16.11,2.8,3.5,4.93,7.48,8,10.82a25.84,25.84,0,0,0,9.5,6.77C205,411.43,205.05,411.27,205,411.22Z" style="fill:#263238"></path><path d="M154.6,322.26c4.51,10.94-12,41.12-17.81,46.39S112.72,387,111.46,389.48s.58,18.65,2.09,20.41,7.44,3.07,9.06,4.62c1.41,1.33,3.81,4.4,1.93,6.28s-25.86,1-28.12,0-15.81-33.58-15.81-39.6-5.42-59.45,13.55-67.72S148.08,306.46,154.6,322.26Z" style="fill:#303846"></path><path d="M147.87,350.3a79.69,79.69,0,0,1-4,7.33c-.71,1.14-1.44,2.27-2.2,3.39s-1.7,2.22-2.58,3.32a66.26,66.26,0,0,1-6.09,6.11c-1.1,1.05-2.25,2.08-3.33,3.16s-2.29,2.41-3.54,3.47c-.1.08,0,.21.14.13,1.32-1.11,2.83-2.06,4.23-3.08s2.59-1.94,3.87-2.93a36.66,36.66,0,0,0,6.37-5.88c3.52-4.43,5.27-9.79,7.26-15C148.07,350.27,147.92,350.21,147.87,350.3Z" style="fill:#263238"></path><path d="M165.48,320.15c-7.54,9.42-12.85,20.47-16.53,31.91-.52,1.6-1,3.2-1.49,4.82s-.8,3.46-1.39,5.14c0,.12.15.17.19.05.5-1.5,1.22-2.9,1.83-4.34s1.13-2.76,1.7-4.14l3.39-8.31c2.24-5.55,4.58-11.07,7.31-16.4a85.22,85.22,0,0,1,5.16-8.61C165.72,320.17,165.56,320.05,165.48,320.15Z" style="fill:#263238"></path><path d="M118.2,417.67a9.75,9.75,0,0,0-2.24-1.41,16.32,16.32,0,0,0-2.6-.91c-.12,0-.16.13,0,.17a11.39,11.39,0,0,1,4.21,2.85,15.39,15.39,0,0,1,3,3.77c.07.14.3,0,.27-.11A8.06,8.06,0,0,0,118.2,417.67Z" style="fill:#263238"></path><path d="M122.59,416.15a10,10,0,0,0-2.24-1.42,19.51,19.51,0,0,0-2.6-.91c-.12,0-.16.13,0,.17a11.49,11.49,0,0,1,4.22,2.86,15.48,15.48,0,0,1,3,3.76c.08.15.3,0,.27-.1A8.1,8.1,0,0,0,122.59,416.15Z" style="fill:#263238"></path></g></svg>